G04*
G04 #@! TF.GenerationSoftware,Altium Limited,Altium Designer,25.8.1 (18)*
G04*
G04 Layer_Physical_Order=2*
G04 Layer_Color=16711680*
%FSLAX44Y44*%
%MOMM*%
G71*
G04*
G04 #@! TF.SameCoordinates,3EE7CF34-C713-4C1D-ADE3-E8542D81B0F6*
G04*
G04*
G04 #@! TF.FilePolarity,Positive*
G04*
G01*
G75*
%ADD26C,0.3048*%
%ADD27C,1.2380*%
%ADD28R,1.2380X1.2380*%
%ADD29C,1.4500*%
%ADD30R,1.4500X1.4500*%
%ADD31R,1.2380X1.2380*%
%ADD32C,1.5000*%
%ADD33C,4.7400*%
%ADD34C,3.8100*%
%ADD35R,1.5000X1.5000*%
%ADD36C,4.0894*%
%ADD37C,3.0000*%
%ADD38C,0.7620*%
G04:AMPARAMS|DCode=39|XSize=2.75mm|YSize=2mm|CornerRadius=0.5mm|HoleSize=0mm|Usage=FLASHONLY|Rotation=180.000|XOffset=0mm|YOffset=0mm|HoleType=Round|Shape=RoundedRectangle|*
%AMROUNDEDRECTD39*
21,1,2.7500,1.0000,0,0,180.0*
21,1,1.7500,2.0000,0,0,180.0*
1,1,1.0000,-0.8750,0.5000*
1,1,1.0000,0.8750,0.5000*
1,1,1.0000,0.8750,-0.5000*
1,1,1.0000,-0.8750,-0.5000*
%
%ADD39ROUNDEDRECTD39*%
%ADD40R,2.5500X2.5000*%
%ADD41C,0.6350*%
G36*
X1141656Y20394D02*
X426795D01*
Y943536D01*
X803910D01*
Y929567D01*
X790360D01*
X787729Y929221D01*
X785276Y928205D01*
X783171Y926589D01*
X781555Y924483D01*
X780539Y922031D01*
X780193Y919400D01*
Y909400D01*
X780539Y906769D01*
X781555Y904316D01*
X783171Y902211D01*
X783837Y901700D01*
X784835Y899677D01*
X784198Y898355D01*
X783774Y897803D01*
X783014Y895968D01*
X782755Y894000D01*
Y890270D01*
X799110D01*
Y887730D01*
X782755D01*
Y884000D01*
X782181Y883345D01*
X698500D01*
X696677Y883105D01*
X694977Y882401D01*
X693518Y881282D01*
X678278Y866042D01*
X677159Y864583D01*
X676455Y862883D01*
X676215Y861060D01*
Y834733D01*
X673675Y834228D01*
X673194Y835389D01*
X670322Y839687D01*
X666667Y843342D01*
X662369Y846214D01*
X657594Y848192D01*
X652524Y849200D01*
X651210D01*
Y822960D01*
Y796720D01*
X652524D01*
X657594Y797728D01*
X662369Y799706D01*
X666667Y802578D01*
X670322Y806233D01*
X673194Y810531D01*
X675172Y815306D01*
X675374Y816321D01*
X678089Y816954D01*
X678278Y816708D01*
X692248Y802738D01*
X693707Y801619D01*
X695407Y800915D01*
X697230Y800675D01*
X701030D01*
X701333Y800149D01*
X703629Y797853D01*
X706441Y796230D01*
X709577Y795390D01*
X712823D01*
X715959Y796230D01*
X718771Y797853D01*
X721067Y800149D01*
X722690Y802961D01*
X723530Y806097D01*
Y809343D01*
X722690Y812479D01*
X721067Y815291D01*
X718771Y817587D01*
X716207Y819067D01*
X716002Y820420D01*
X716207Y821773D01*
X718771Y823253D01*
X721067Y825549D01*
X722690Y828361D01*
X723530Y831497D01*
Y834743D01*
X722690Y837879D01*
X721067Y840691D01*
X718771Y842987D01*
X716207Y844467D01*
X716002Y845820D01*
X716207Y847173D01*
X718771Y848653D01*
X721067Y850949D01*
X722690Y853761D01*
X723530Y856897D01*
Y860143D01*
X722690Y863279D01*
X721067Y866091D01*
X720443Y866715D01*
X721495Y869255D01*
X777717D01*
X780193Y868600D01*
Y858600D01*
X780539Y855969D01*
X781555Y853516D01*
X782118Y852783D01*
X782946Y850900D01*
X782118Y849017D01*
X781555Y848283D01*
X780539Y845831D01*
X780193Y843200D01*
Y833200D01*
X780539Y830569D01*
X781555Y828117D01*
X782118Y827383D01*
X782946Y825500D01*
X782118Y823617D01*
X781555Y822884D01*
X780539Y820431D01*
X780193Y817800D01*
Y807800D01*
X780539Y805169D01*
X781555Y802717D01*
X782118Y801983D01*
X782946Y800100D01*
X782118Y798217D01*
X781555Y797484D01*
X780539Y795031D01*
X780193Y792400D01*
Y782400D01*
X780442Y780513D01*
X678511Y678583D01*
X676900Y679250D01*
Y679250D01*
X664509D01*
Y740470D01*
X664094Y742551D01*
X662916Y744316D01*
X616309Y790923D01*
Y880380D01*
X619596D01*
X622796Y881237D01*
X625664Y882894D01*
X628007Y885236D01*
X629663Y888104D01*
X630520Y891304D01*
Y894616D01*
X629663Y897816D01*
X628007Y900684D01*
X625664Y903027D01*
X622796Y904683D01*
X619596Y905540D01*
X616284D01*
X613084Y904683D01*
X610216Y903027D01*
X607873Y900684D01*
X606217Y897816D01*
X605360Y894616D01*
Y891304D01*
X606214Y888116D01*
X605845Y887564D01*
X605432Y885483D01*
Y788670D01*
X605845Y786589D01*
X607024Y784824D01*
X653632Y738217D01*
Y679250D01*
X641240D01*
Y671317D01*
X638700Y670598D01*
X637194Y672851D01*
X634751Y675294D01*
X631878Y677214D01*
X628686Y678536D01*
X625298Y679210D01*
X621842D01*
X618454Y678536D01*
X615262Y677214D01*
X612389Y675294D01*
X609946Y672851D01*
X608026Y669978D01*
X606704Y666786D01*
X606030Y663398D01*
Y659942D01*
X606704Y656554D01*
X608026Y653362D01*
X609946Y650489D01*
X612389Y648046D01*
X615262Y646126D01*
X618454Y644804D01*
X621842Y644130D01*
X625298D01*
X628686Y644804D01*
X631878Y646126D01*
X634751Y648046D01*
X637194Y650489D01*
X638700Y652742D01*
X641240Y652023D01*
Y644090D01*
X653632D01*
Y464620D01*
X641240D01*
Y456687D01*
X638700Y455967D01*
X637194Y458221D01*
X634751Y460664D01*
X631878Y462584D01*
X628686Y463906D01*
X625298Y464580D01*
X621842D01*
X618454Y463906D01*
X615262Y462584D01*
X612389Y460664D01*
X609946Y458221D01*
X608026Y455348D01*
X606704Y452156D01*
X606030Y448768D01*
Y445312D01*
X606704Y441924D01*
X608026Y438732D01*
X609946Y435859D01*
X612389Y433416D01*
X615262Y431496D01*
X618454Y430174D01*
X621842Y429500D01*
X625298D01*
X628686Y430174D01*
X631878Y431496D01*
X634751Y433416D01*
X637194Y435859D01*
X638700Y438112D01*
X641240Y437393D01*
Y429460D01*
X653632D01*
Y248720D01*
X641240D01*
Y240787D01*
X638700Y240068D01*
X637194Y242321D01*
X634751Y244764D01*
X631878Y246684D01*
X628686Y248006D01*
X625298Y248680D01*
X621842D01*
X618454Y248006D01*
X615262Y246684D01*
X612389Y244764D01*
X609946Y242321D01*
X608026Y239448D01*
X606704Y236256D01*
X606030Y232868D01*
Y229412D01*
X606704Y226024D01*
X608026Y222832D01*
X609946Y219959D01*
X612389Y217516D01*
X615262Y215596D01*
X618454Y214274D01*
X621842Y213600D01*
X625298D01*
X628686Y214274D01*
X631878Y215596D01*
X634751Y217516D01*
X637194Y219959D01*
X638700Y222213D01*
X641240Y221493D01*
Y213560D01*
X676900D01*
Y248720D01*
X664509D01*
Y429460D01*
X676900D01*
Y464620D01*
X664509D01*
Y644090D01*
X676900D01*
Y662104D01*
X678452Y663141D01*
X777846Y762535D01*
X780193Y761563D01*
Y757000D01*
X780539Y754369D01*
X781555Y751917D01*
X783171Y749811D01*
X783591Y749488D01*
Y736233D01*
X782699Y735994D01*
X780671Y734824D01*
X779016Y733169D01*
X777846Y731141D01*
X777240Y728880D01*
Y726540D01*
X777846Y724279D01*
X779016Y722251D01*
X780671Y720596D01*
X782699Y719426D01*
X784960Y718820D01*
X787300D01*
X789561Y719426D01*
X791589Y720596D01*
X793244Y722251D01*
X794414Y724279D01*
X795020Y726540D01*
Y728880D01*
X794414Y731141D01*
X794360Y731236D01*
X794468Y731781D01*
Y746833D01*
X803910D01*
Y732790D01*
X827682D01*
Y679250D01*
X826660D01*
Y671317D01*
X824120Y670598D01*
X822614Y672851D01*
X820171Y675294D01*
X817298Y677214D01*
X814106Y678536D01*
X810717Y679210D01*
X807262D01*
X803874Y678536D01*
X800682Y677214D01*
X797809Y675294D01*
X795366Y672851D01*
X793446Y669978D01*
X792124Y666786D01*
X791450Y663398D01*
Y659942D01*
X792124Y656554D01*
X793446Y653362D01*
X795366Y650489D01*
X797809Y648046D01*
X800682Y646126D01*
X803874Y644804D01*
X807262Y644130D01*
X810717D01*
X814106Y644804D01*
X817298Y646126D01*
X820171Y648046D01*
X822614Y650489D01*
X824120Y652742D01*
X826660Y652023D01*
Y644090D01*
X839052D01*
Y464620D01*
X825390D01*
Y456687D01*
X822850Y455967D01*
X821344Y458221D01*
X818901Y460664D01*
X816028Y462584D01*
X812836Y463906D01*
X809447Y464580D01*
X805993D01*
X802604Y463906D01*
X799412Y462584D01*
X796539Y460664D01*
X794096Y458221D01*
X792176Y455348D01*
X790854Y452156D01*
X790180Y448768D01*
Y445312D01*
X790854Y441924D01*
X792176Y438732D01*
X794096Y435859D01*
X796539Y433416D01*
X799412Y431496D01*
X802604Y430174D01*
X805993Y429500D01*
X809447D01*
X812836Y430174D01*
X816028Y431496D01*
X818901Y433416D01*
X821344Y435859D01*
X822850Y438112D01*
X825390Y437393D01*
Y429460D01*
X837782D01*
Y248720D01*
X825390D01*
Y240787D01*
X822850Y240068D01*
X821344Y242321D01*
X818901Y244764D01*
X816028Y246684D01*
X812836Y248006D01*
X809447Y248680D01*
X805993D01*
X802604Y248006D01*
X799412Y246684D01*
X796539Y244764D01*
X794096Y242321D01*
X792176Y239448D01*
X790854Y236256D01*
X790180Y232868D01*
Y229412D01*
X790854Y226024D01*
X792176Y222832D01*
X794096Y219959D01*
X796539Y217516D01*
X799412Y215596D01*
X802604Y214274D01*
X805993Y213600D01*
X809447D01*
X812836Y214274D01*
X816028Y215596D01*
X818901Y217516D01*
X821344Y219959D01*
X822850Y222213D01*
X825390Y221493D01*
Y213560D01*
X861050D01*
Y248720D01*
X848659D01*
Y429460D01*
X861050D01*
Y464620D01*
X849929D01*
Y565150D01*
X855980D01*
Y563980D01*
X856586Y561719D01*
X857756Y559691D01*
X859411Y558036D01*
X861439Y556866D01*
X863700Y556260D01*
X866040D01*
X868301Y556866D01*
X870329Y558036D01*
X871984Y559691D01*
X873154Y561719D01*
X873760Y563980D01*
Y566320D01*
X873754Y566343D01*
X875066Y567654D01*
X876245Y569419D01*
X876658Y571500D01*
Y617849D01*
X878850Y618690D01*
X879199Y618690D01*
X891242D01*
Y540105D01*
X891656Y538024D01*
X892834Y536259D01*
X921768Y507326D01*
X921325Y505674D01*
Y502706D01*
X922093Y499840D01*
X923577Y497270D01*
X925675Y495172D01*
X928245Y493688D01*
X931111Y492920D01*
X934079D01*
X936945Y493688D01*
X939515Y495172D01*
X941613Y497270D01*
X943097Y499840D01*
X943865Y502706D01*
Y505674D01*
X943097Y508540D01*
X941613Y511110D01*
X939515Y513208D01*
X936945Y514692D01*
X934079Y515460D01*
X931111D01*
X929459Y515017D01*
X902119Y542358D01*
Y618690D01*
X914510D01*
Y626623D01*
X917050Y627342D01*
X918556Y625089D01*
X920999Y622646D01*
X923872Y620726D01*
X927064Y619404D01*
X930452Y618730D01*
X933907D01*
X937296Y619404D01*
X940488Y620726D01*
X943361Y622646D01*
X945804Y625089D01*
X947724Y627962D01*
X949046Y631154D01*
X949720Y634543D01*
Y637998D01*
X949046Y641386D01*
X947724Y644578D01*
X945804Y647451D01*
X943361Y649894D01*
X940488Y651814D01*
X937296Y653136D01*
X933907Y653810D01*
X930452D01*
X927064Y653136D01*
X923872Y651814D01*
X920999Y649894D01*
X918556Y647451D01*
X917050Y645198D01*
X914510Y645917D01*
Y653850D01*
X879199D01*
X878850Y653850D01*
X876658Y654691D01*
Y695960D01*
X876245Y698041D01*
X875066Y699806D01*
X849734Y725137D01*
Y732790D01*
X960120D01*
Y746833D01*
X968586D01*
X993742Y721677D01*
Y693420D01*
X994156Y691339D01*
X995334Y689574D01*
X1005953Y678956D01*
X1004334Y676983D01*
X1003988Y677214D01*
X1000796Y678536D01*
X997408Y679210D01*
X993952D01*
X990564Y678536D01*
X987372Y677214D01*
X984499Y675294D01*
X982056Y672851D01*
X980136Y669978D01*
X978814Y666786D01*
X978140Y663398D01*
Y659942D01*
X978814Y656554D01*
X980136Y653362D01*
X982056Y650489D01*
X984499Y648046D01*
X987372Y646126D01*
X990564Y644804D01*
X993952Y644130D01*
X997408D01*
X1000796Y644804D01*
X1003988Y646126D01*
X1006861Y648046D01*
X1009304Y650489D01*
X1010810Y652742D01*
X1013350Y652023D01*
Y644090D01*
X1025491D01*
Y464620D01*
X1013350D01*
Y456687D01*
X1010810Y455967D01*
X1009304Y458221D01*
X1006861Y460664D01*
X1003988Y462584D01*
X1000796Y463906D01*
X997408Y464580D01*
X993952D01*
X990564Y463906D01*
X987372Y462584D01*
X984499Y460664D01*
X982056Y458221D01*
X980136Y455348D01*
X978814Y452156D01*
X978140Y448768D01*
Y445312D01*
X978814Y441924D01*
X980136Y438732D01*
X982056Y435859D01*
X984499Y433416D01*
X987372Y431496D01*
X990564Y430174D01*
X993952Y429500D01*
X997408D01*
X1000796Y430174D01*
X1003988Y431496D01*
X1006861Y433416D01*
X1009304Y435859D01*
X1010810Y438112D01*
X1013350Y437393D01*
Y429460D01*
X1025742D01*
Y248720D01*
X1013350D01*
Y240787D01*
X1010810Y240068D01*
X1009304Y242321D01*
X1006861Y244764D01*
X1003988Y246684D01*
X1000796Y248006D01*
X997408Y248680D01*
X993952D01*
X990564Y248006D01*
X987372Y246684D01*
X984499Y244764D01*
X982056Y242321D01*
X980136Y239448D01*
X978814Y236256D01*
X978140Y232868D01*
Y229412D01*
X978814Y226024D01*
X980136Y222832D01*
X982056Y219959D01*
X984499Y217516D01*
X987372Y215596D01*
X990564Y214274D01*
X993952Y213600D01*
X997408D01*
X1000796Y214274D01*
X1003988Y215596D01*
X1006861Y217516D01*
X1009304Y219959D01*
X1010810Y222213D01*
X1013350Y221493D01*
Y213560D01*
X1049010D01*
Y248720D01*
X1036618D01*
Y429460D01*
X1049010D01*
Y464620D01*
X1036368D01*
Y644090D01*
X1049010D01*
Y679250D01*
X1021041D01*
X1004619Y695673D01*
Y723930D01*
X1004204Y726011D01*
X1003026Y727776D01*
X978729Y752072D01*
X979680Y754369D01*
X980027Y757000D01*
Y767000D01*
X979680Y769631D01*
X978665Y772084D01*
X978102Y772817D01*
X977274Y774700D01*
X978102Y776583D01*
X978665Y777317D01*
X979680Y779769D01*
X979802Y780692D01*
X988555D01*
X988566Y780671D01*
X990221Y779016D01*
X992249Y777846D01*
X994510Y777240D01*
X996850D01*
X999111Y777846D01*
X1001139Y779016D01*
X1002794Y780671D01*
X1003964Y782699D01*
X1004570Y784960D01*
Y787300D01*
X1003964Y789561D01*
X1002794Y791589D01*
X1001139Y793244D01*
X999111Y794414D01*
X996850Y795020D01*
X994510D01*
X992249Y794414D01*
X990221Y793244D01*
X988566Y791589D01*
X988555Y791569D01*
X980027D01*
Y792400D01*
X979680Y795031D01*
X978665Y797484D01*
X978102Y798217D01*
X977274Y800100D01*
X978102Y801983D01*
X978665Y802717D01*
X979680Y805169D01*
X979969Y807362D01*
X988555D01*
X988566Y807341D01*
X990221Y805686D01*
X992249Y804516D01*
X994510Y803910D01*
X996850D01*
X999111Y804516D01*
X1001139Y805686D01*
X1002794Y807341D01*
X1003964Y809369D01*
X1004570Y811630D01*
Y813970D01*
X1003964Y816231D01*
X1002794Y818259D01*
X1001139Y819914D01*
X999111Y821084D01*
X996850Y821690D01*
X994510D01*
X992249Y821084D01*
X990221Y819914D01*
X988566Y818259D01*
X988555Y818239D01*
X979969D01*
X979680Y820431D01*
X978665Y822884D01*
X978102Y823617D01*
X977274Y825500D01*
X978102Y827383D01*
X978665Y828117D01*
X979680Y830569D01*
X979969Y832762D01*
X1054387D01*
X1077871Y809277D01*
Y151258D01*
X1011544Y84930D01*
X996695D01*
Y62390D01*
X1019235D01*
Y77239D01*
X1087156Y145159D01*
X1088335Y146924D01*
X1088748Y149005D01*
Y811530D01*
X1088335Y813611D01*
X1087156Y815376D01*
X1060486Y842046D01*
X1058721Y843224D01*
X1056640Y843639D01*
X1047750D01*
Y854710D01*
X1048920D01*
X1051181Y855316D01*
X1053209Y856486D01*
X1054864Y858141D01*
X1056034Y860169D01*
X1056640Y862430D01*
Y864770D01*
X1056034Y867031D01*
X1054864Y869059D01*
X1053209Y870714D01*
X1051181Y871884D01*
X1048920Y872490D01*
X1046580D01*
X1044319Y871884D01*
X1042291Y870714D01*
X1040636Y869059D01*
X1040625Y869038D01*
X979969D01*
X979680Y871231D01*
X978665Y873683D01*
X978102Y874417D01*
X977274Y876300D01*
X978102Y878183D01*
X978665Y878916D01*
X979680Y881369D01*
X979969Y883561D01*
X991095D01*
X991106Y883541D01*
X992761Y881886D01*
X994789Y880716D01*
X997050Y880110D01*
X999390D01*
X1001651Y880716D01*
X1003679Y881886D01*
X1005334Y883541D01*
X1006504Y885569D01*
X1007110Y887830D01*
Y890170D01*
X1006504Y892431D01*
X1005334Y894459D01*
X1003679Y896114D01*
X1001651Y897284D01*
X999390Y897890D01*
X997050D01*
X994789Y897284D01*
X992761Y896114D01*
X991106Y894459D01*
X991095Y894438D01*
X979969D01*
X979680Y896631D01*
X978665Y899083D01*
X978102Y899817D01*
X977274Y901700D01*
X978102Y903583D01*
X978665Y904316D01*
X979680Y906769D01*
X979969Y908961D01*
X1010145D01*
X1010156Y908941D01*
X1011811Y907286D01*
X1013839Y906116D01*
X1016100Y905510D01*
X1018440D01*
X1020701Y906116D01*
X1022729Y907286D01*
X1024384Y908941D01*
X1025554Y910969D01*
X1026160Y913230D01*
Y915570D01*
X1025554Y917831D01*
X1024384Y919859D01*
X1022729Y921514D01*
X1020701Y922684D01*
X1018440Y923290D01*
X1016100D01*
X1013839Y922684D01*
X1011811Y921514D01*
X1010156Y919859D01*
X1010145Y919838D01*
X979969D01*
X979680Y922031D01*
X978665Y924483D01*
X977049Y926589D01*
X974943Y928205D01*
X972491Y929221D01*
X969860Y929567D01*
X960120D01*
Y943536D01*
X1141656D01*
Y20394D01*
D02*
G37*
G36*
X700633Y864877D02*
X699710Y863279D01*
X698870Y860143D01*
Y856897D01*
X699710Y853761D01*
X701333Y850949D01*
X703629Y848653D01*
X706193Y847173D01*
X706398Y845820D01*
X706193Y844467D01*
X703629Y842987D01*
X701333Y840691D01*
X699710Y837879D01*
X698870Y834743D01*
Y831497D01*
X699710Y828361D01*
X701333Y825549D01*
X703629Y823253D01*
X706193Y821773D01*
X706398Y820420D01*
X706193Y819067D01*
X703629Y817587D01*
X701333Y815291D01*
X698848Y816066D01*
X690305Y824608D01*
Y858142D01*
X698600Y866437D01*
X700633Y864877D01*
D02*
G37*
%LPC*%
G36*
X569596Y905540D02*
X566284D01*
X563084Y904683D01*
X560216Y903027D01*
X557873Y900684D01*
X556217Y897816D01*
X555360Y894616D01*
Y891304D01*
X556217Y888104D01*
X557873Y885236D01*
X560216Y882894D01*
X563084Y881237D01*
X566284Y880380D01*
X569596D01*
X572796Y881237D01*
X575664Y882894D01*
X578007Y885236D01*
X579663Y888104D01*
X580520Y891304D01*
Y894616D01*
X579663Y897816D01*
X578007Y900684D01*
X575664Y903027D01*
X572796Y904683D01*
X569596Y905540D01*
D02*
G37*
G36*
X1100927Y924560D02*
X1096173D01*
X1091512Y923633D01*
X1087120Y921814D01*
X1083168Y919173D01*
X1079807Y915812D01*
X1077166Y911860D01*
X1075347Y907468D01*
X1074420Y902807D01*
Y898053D01*
X1075347Y893391D01*
X1077166Y889000D01*
X1079807Y885048D01*
X1083168Y881687D01*
X1087120Y879046D01*
X1091512Y877227D01*
X1096173Y876300D01*
X1100927D01*
X1105589Y877227D01*
X1109980Y879046D01*
X1113932Y881687D01*
X1117293Y885048D01*
X1119934Y889000D01*
X1121753Y893391D01*
X1122680Y898053D01*
Y902807D01*
X1121753Y907468D01*
X1119934Y911860D01*
X1117293Y915812D01*
X1113932Y919173D01*
X1109980Y921814D01*
X1105589Y923633D01*
X1100927Y924560D01*
D02*
G37*
G36*
X477357Y919480D02*
X472603D01*
X467942Y918553D01*
X463550Y916734D01*
X459598Y914093D01*
X456237Y910732D01*
X453596Y906780D01*
X451777Y902389D01*
X450850Y897727D01*
Y892973D01*
X451777Y888311D01*
X453596Y883920D01*
X456237Y879968D01*
X459598Y876607D01*
X463550Y873966D01*
X467942Y872147D01*
X472603Y871220D01*
X477357D01*
X482019Y872147D01*
X486410Y873966D01*
X490362Y876607D01*
X493723Y879968D01*
X496364Y883920D01*
X498183Y888311D01*
X499110Y892973D01*
Y897727D01*
X498183Y902389D01*
X496364Y906780D01*
X493723Y910732D01*
X490362Y914093D01*
X486410Y916734D01*
X482019Y918553D01*
X477357Y919480D01*
D02*
G37*
G36*
X648670Y849200D02*
X647356D01*
X642286Y848192D01*
X637511Y846214D01*
X633213Y843342D01*
X629558Y839687D01*
X626686Y835389D01*
X624708Y830614D01*
X623700Y825544D01*
Y824230D01*
X648670D01*
Y849200D01*
D02*
G37*
G36*
X538524D02*
X537210D01*
Y824230D01*
X562180D01*
Y825544D01*
X561172Y830614D01*
X559194Y835389D01*
X556322Y839687D01*
X552667Y843342D01*
X548369Y846214D01*
X543594Y848192D01*
X538524Y849200D01*
D02*
G37*
G36*
X534670D02*
X533356D01*
X528286Y848192D01*
X523511Y846214D01*
X519213Y843342D01*
X515558Y839687D01*
X512686Y835389D01*
X510708Y830614D01*
X509700Y825544D01*
Y824230D01*
X534670D01*
Y849200D01*
D02*
G37*
G36*
X756920Y816607D02*
Y811530D01*
X761997D01*
X761033Y813857D01*
X759247Y815643D01*
X756920Y816607D01*
D02*
G37*
G36*
X754380D02*
X752053Y815643D01*
X750267Y813857D01*
X749303Y811530D01*
X754380D01*
Y816607D01*
D02*
G37*
G36*
X761997Y808990D02*
X756920D01*
Y803913D01*
X759247Y804877D01*
X761033Y806663D01*
X761997Y808990D01*
D02*
G37*
G36*
X754380D02*
X749303D01*
X750267Y806663D01*
X752053Y804877D01*
X754380Y803913D01*
Y808990D01*
D02*
G37*
G36*
X489164Y826195D02*
X486196D01*
X483330Y825427D01*
X480760Y823943D01*
X478662Y821845D01*
X477178Y819275D01*
X476410Y816409D01*
Y813441D01*
X477178Y810575D01*
X478662Y808005D01*
X480760Y805907D01*
X483330Y804423D01*
X486196Y803655D01*
X489164D01*
X492030Y804423D01*
X494600Y805907D01*
X496698Y808005D01*
X498182Y810575D01*
X498950Y813441D01*
Y816409D01*
X498182Y819275D01*
X496698Y821845D01*
X494600Y823943D01*
X492030Y825427D01*
X489164Y826195D01*
D02*
G37*
G36*
X648670Y821690D02*
X623700D01*
Y820376D01*
X624708Y815306D01*
X626686Y810531D01*
X629558Y806233D01*
X633213Y802578D01*
X637511Y799706D01*
X642286Y797728D01*
X647356Y796720D01*
X648670D01*
Y821690D01*
D02*
G37*
G36*
X562180D02*
X537210D01*
Y796720D01*
X538524D01*
X543594Y797728D01*
X548369Y799706D01*
X552667Y802578D01*
X556322Y806233D01*
X559194Y810531D01*
X561172Y815306D01*
X562180Y820376D01*
Y821690D01*
D02*
G37*
G36*
X534670D02*
X509700D01*
Y820376D01*
X510708Y815306D01*
X512686Y810531D01*
X515558Y806233D01*
X519213Y802578D01*
X523511Y799706D01*
X528286Y797728D01*
X533356Y796720D01*
X534670D01*
Y821690D01*
D02*
G37*
G36*
X720990Y792110D02*
X712470D01*
Y783590D01*
X720990D01*
Y792110D01*
D02*
G37*
G36*
X709930D02*
X701410D01*
Y783590D01*
X709930D01*
Y792110D01*
D02*
G37*
G36*
X720990Y781050D02*
X712470D01*
Y772530D01*
X720990D01*
Y781050D01*
D02*
G37*
G36*
X709930D02*
X701410D01*
Y772530D01*
X709930D01*
Y781050D01*
D02*
G37*
G36*
X619596Y760540D02*
X616284D01*
X613084Y759683D01*
X610216Y758027D01*
X607873Y755684D01*
X606217Y752816D01*
X605360Y749616D01*
X602863Y749719D01*
X602296Y751835D01*
X600974Y754125D01*
X599105Y755994D01*
X596815Y757316D01*
X594262Y758000D01*
X594210D01*
Y747960D01*
Y737920D01*
X594262D01*
X596815Y738604D01*
X599105Y739926D01*
X600974Y741795D01*
X602296Y744085D01*
X602863Y746201D01*
X605360Y746304D01*
X606217Y743104D01*
X607873Y740236D01*
X610216Y737894D01*
X613084Y736237D01*
X616284Y735380D01*
X619596D01*
X622796Y736237D01*
X625664Y737894D01*
X628007Y740236D01*
X629663Y743104D01*
X630520Y746304D01*
Y749616D01*
X629663Y752816D01*
X628007Y755684D01*
X625664Y758027D01*
X622796Y759683D01*
X619596Y760540D01*
D02*
G37*
G36*
X580520D02*
X555360D01*
Y735380D01*
X580520D01*
Y745707D01*
X583060Y746041D01*
X583584Y744085D01*
X584906Y741795D01*
X586775Y739926D01*
X589065Y738604D01*
X591618Y737920D01*
X591670D01*
Y747960D01*
Y758000D01*
X591618D01*
X589065Y757316D01*
X586775Y755994D01*
X584906Y754125D01*
X583584Y751835D01*
X583060Y749879D01*
X580520Y750213D01*
Y760540D01*
D02*
G37*
G36*
X498950Y750825D02*
X476410D01*
Y728285D01*
X498950D01*
Y750825D01*
D02*
G37*
G36*
X727820Y653850D02*
X692160D01*
Y618690D01*
X704551D01*
Y540105D01*
X704966Y538024D01*
X706144Y536259D01*
X735078Y507326D01*
X734635Y505674D01*
Y502706D01*
X735403Y499840D01*
X736887Y497270D01*
X738985Y495172D01*
X741555Y493688D01*
X744421Y492920D01*
X747389D01*
X750255Y493688D01*
X752825Y495172D01*
X754923Y497270D01*
X756407Y499840D01*
X757175Y502706D01*
Y505674D01*
X756407Y508540D01*
X754923Y511110D01*
X752825Y513208D01*
X750255Y514692D01*
X747389Y515460D01*
X744421D01*
X742769Y515017D01*
X715428Y542358D01*
Y618690D01*
X727820D01*
Y626623D01*
X730360Y627342D01*
X731866Y625089D01*
X734309Y622646D01*
X737182Y620726D01*
X740374Y619404D01*
X743763Y618730D01*
X747217D01*
X750606Y619404D01*
X753798Y620726D01*
X756671Y622646D01*
X759114Y625089D01*
X761034Y627962D01*
X762356Y631154D01*
X763030Y634543D01*
Y637998D01*
X762356Y641386D01*
X761034Y644578D01*
X759114Y647451D01*
X756671Y649894D01*
X753798Y651814D01*
X750606Y653136D01*
X747217Y653810D01*
X743763D01*
X740374Y653136D01*
X737182Y651814D01*
X734309Y649894D01*
X731866Y647451D01*
X730360Y645198D01*
X727820Y645917D01*
Y653850D01*
D02*
G37*
G36*
X542400D02*
X506740D01*
Y618690D01*
X519132D01*
Y540105D01*
X519546Y538024D01*
X520724Y536259D01*
X549658Y507326D01*
X549215Y505674D01*
Y502706D01*
X549983Y499840D01*
X551467Y497270D01*
X553565Y495172D01*
X556135Y493688D01*
X559001Y492920D01*
X561969D01*
X564835Y493688D01*
X567405Y495172D01*
X569503Y497270D01*
X570987Y499840D01*
X571755Y502706D01*
Y505674D01*
X570987Y508540D01*
X569503Y511110D01*
X567405Y513208D01*
X564835Y514692D01*
X561969Y515460D01*
X559001D01*
X557349Y515017D01*
X530009Y542358D01*
Y618690D01*
X542400D01*
Y626623D01*
X544940Y627342D01*
X546446Y625089D01*
X548889Y622646D01*
X551762Y620726D01*
X554954Y619404D01*
X558343Y618730D01*
X561797D01*
X565186Y619404D01*
X568378Y620726D01*
X571251Y622646D01*
X573694Y625089D01*
X575614Y627962D01*
X576936Y631154D01*
X577610Y634543D01*
Y637998D01*
X576936Y641386D01*
X575614Y644578D01*
X573694Y647451D01*
X571251Y649894D01*
X568378Y651814D01*
X565186Y653136D01*
X561797Y653810D01*
X558343D01*
X554954Y653136D01*
X551762Y651814D01*
X548889Y649894D01*
X546446Y647451D01*
X544940Y645198D01*
X542400Y645917D01*
Y653850D01*
D02*
G37*
G36*
X972544Y633857D02*
X968016D01*
X963575Y632974D01*
X959392Y631241D01*
X955627Y628725D01*
X952425Y625523D01*
X949909Y621758D01*
X948176Y617575D01*
X947293Y613134D01*
Y608606D01*
X948176Y604165D01*
X949909Y599982D01*
X952425Y596217D01*
X955627Y593015D01*
X959392Y590499D01*
X963575Y588766D01*
X968016Y587883D01*
X972544D01*
X976985Y588766D01*
X981168Y590499D01*
X984933Y593015D01*
X988135Y596217D01*
X990651Y599982D01*
X992384Y604165D01*
X993267Y608606D01*
Y613134D01*
X992384Y617575D01*
X990651Y621758D01*
X988135Y625523D01*
X984933Y628725D01*
X981168Y631241D01*
X976985Y632974D01*
X972544Y633857D01*
D02*
G37*
G36*
X785854D02*
X781326D01*
X776885Y632974D01*
X772702Y631241D01*
X768937Y628725D01*
X765735Y625523D01*
X763219Y621758D01*
X761486Y617575D01*
X760603Y613134D01*
Y608606D01*
X761486Y604165D01*
X763219Y599982D01*
X765735Y596217D01*
X768937Y593015D01*
X772702Y590499D01*
X776885Y588766D01*
X781326Y587883D01*
X785854D01*
X790295Y588766D01*
X794478Y590499D01*
X798243Y593015D01*
X801445Y596217D01*
X803961Y599982D01*
X805694Y604165D01*
X806577Y608606D01*
Y613134D01*
X805694Y617575D01*
X803961Y621758D01*
X801445Y625523D01*
X798243Y628725D01*
X794478Y631241D01*
X790295Y632974D01*
X785854Y633857D01*
D02*
G37*
G36*
X600434D02*
X595906D01*
X591465Y632974D01*
X587282Y631241D01*
X583517Y628725D01*
X580315Y625523D01*
X577799Y621758D01*
X576066Y617575D01*
X575183Y613134D01*
Y608606D01*
X576066Y604165D01*
X577799Y599982D01*
X580315Y596217D01*
X583517Y593015D01*
X587282Y590499D01*
X591465Y588766D01*
X595906Y587883D01*
X600434D01*
X604875Y588766D01*
X609058Y590499D01*
X612823Y593015D01*
X616025Y596217D01*
X618541Y599982D01*
X620274Y604165D01*
X621157Y608606D01*
Y613134D01*
X620274Y617575D01*
X618541Y621758D01*
X616025Y625523D01*
X612823Y628725D01*
X609058Y631241D01*
X604875Y632974D01*
X600434Y633857D01*
D02*
G37*
G36*
X1019235Y515460D02*
X996695D01*
Y492920D01*
X1019235D01*
Y515460D01*
D02*
G37*
G36*
X832545D02*
X810005D01*
Y492920D01*
X832545D01*
Y515460D01*
D02*
G37*
G36*
X647125D02*
X624585D01*
Y492920D01*
X647125D01*
Y515460D01*
D02*
G37*
G36*
X914510Y439220D02*
X878850D01*
Y404060D01*
X891242D01*
Y325475D01*
X891656Y323394D01*
X892834Y321629D01*
X921768Y292696D01*
X921325Y291044D01*
Y288076D01*
X922093Y285210D01*
X923577Y282640D01*
X925675Y280542D01*
X928245Y279058D01*
X931111Y278290D01*
X934079D01*
X936945Y279058D01*
X939515Y280542D01*
X941613Y282640D01*
X943097Y285210D01*
X943865Y288076D01*
Y291044D01*
X943097Y293910D01*
X941613Y296480D01*
X939515Y298578D01*
X936945Y300062D01*
X934079Y300830D01*
X931111D01*
X929459Y300387D01*
X902119Y327728D01*
Y404060D01*
X914510D01*
Y411993D01*
X917050Y412713D01*
X918556Y410459D01*
X920999Y408016D01*
X923872Y406096D01*
X927064Y404774D01*
X930452Y404100D01*
X933907D01*
X937296Y404774D01*
X940488Y406096D01*
X943361Y408016D01*
X945804Y410459D01*
X947724Y413332D01*
X949046Y416524D01*
X949720Y419912D01*
Y423368D01*
X949046Y426756D01*
X947724Y429948D01*
X945804Y432821D01*
X943361Y435264D01*
X940488Y437184D01*
X937296Y438506D01*
X933907Y439180D01*
X930452D01*
X927064Y438506D01*
X923872Y437184D01*
X920999Y435264D01*
X918556Y432821D01*
X917050Y430568D01*
X914510Y431287D01*
Y439220D01*
D02*
G37*
G36*
X726550D02*
X690890D01*
Y404060D01*
X703281D01*
Y325475D01*
X703696Y323394D01*
X704874Y321629D01*
X735905Y290599D01*
Y288076D01*
X736673Y285210D01*
X738157Y282640D01*
X740255Y280542D01*
X742825Y279058D01*
X745691Y278290D01*
X748659D01*
X751525Y279058D01*
X754095Y280542D01*
X756193Y282640D01*
X757677Y285210D01*
X758445Y288076D01*
Y291044D01*
X757677Y293910D01*
X756193Y296480D01*
X754095Y298578D01*
X751525Y300062D01*
X748659Y300830D01*
X745691D01*
X742825Y300062D01*
X742190Y299696D01*
X714158Y327728D01*
Y404060D01*
X726550D01*
Y411993D01*
X729090Y412713D01*
X730596Y410459D01*
X733039Y408016D01*
X735912Y406096D01*
X739104Y404774D01*
X742493Y404100D01*
X745947D01*
X749336Y404774D01*
X752528Y406096D01*
X755401Y408016D01*
X757844Y410459D01*
X759764Y413332D01*
X761086Y416524D01*
X761760Y419912D01*
Y423368D01*
X761086Y426756D01*
X759764Y429948D01*
X757844Y432821D01*
X755401Y435264D01*
X752528Y437184D01*
X749336Y438506D01*
X745947Y439180D01*
X742493D01*
X739104Y438506D01*
X735912Y437184D01*
X733039Y435264D01*
X730596Y432821D01*
X729090Y430568D01*
X726550Y431287D01*
Y439220D01*
D02*
G37*
G36*
X542400D02*
X506740D01*
Y404060D01*
X519132D01*
Y325475D01*
X519546Y323394D01*
X520724Y321629D01*
X550659Y291695D01*
X550485Y291044D01*
Y288076D01*
X551253Y285210D01*
X552737Y282640D01*
X554835Y280542D01*
X557405Y279058D01*
X560271Y278290D01*
X563239D01*
X566105Y279058D01*
X568675Y280542D01*
X570773Y282640D01*
X572257Y285210D01*
X573025Y288076D01*
Y291044D01*
X572257Y293910D01*
X570773Y296480D01*
X568675Y298578D01*
X566105Y300062D01*
X563239Y300830D01*
X560271D01*
X557617Y300119D01*
X530009Y327728D01*
Y404060D01*
X542400D01*
Y411993D01*
X544940Y412713D01*
X546446Y410459D01*
X548889Y408016D01*
X551762Y406096D01*
X554954Y404774D01*
X558343Y404100D01*
X561797D01*
X565186Y404774D01*
X568378Y406096D01*
X571251Y408016D01*
X573694Y410459D01*
X575614Y413332D01*
X576936Y416524D01*
X577610Y419912D01*
Y423368D01*
X576936Y426756D01*
X575614Y429948D01*
X573694Y432821D01*
X571251Y435264D01*
X568378Y437184D01*
X565186Y438506D01*
X561797Y439180D01*
X558343D01*
X554954Y438506D01*
X551762Y437184D01*
X548889Y435264D01*
X546446Y432821D01*
X544940Y430568D01*
X542400Y431287D01*
Y439220D01*
D02*
G37*
G36*
X972544Y419227D02*
X968016D01*
X963575Y418344D01*
X959392Y416611D01*
X955627Y414095D01*
X952425Y410893D01*
X949909Y407128D01*
X948176Y402945D01*
X947293Y398504D01*
Y393976D01*
X948176Y389535D01*
X949909Y385352D01*
X952425Y381587D01*
X955627Y378385D01*
X959392Y375869D01*
X963575Y374136D01*
X968016Y373253D01*
X972544D01*
X976985Y374136D01*
X981168Y375869D01*
X984933Y378385D01*
X988135Y381587D01*
X990651Y385352D01*
X992384Y389535D01*
X993267Y393976D01*
Y398504D01*
X992384Y402945D01*
X990651Y407128D01*
X988135Y410893D01*
X984933Y414095D01*
X981168Y416611D01*
X976985Y418344D01*
X972544Y419227D01*
D02*
G37*
G36*
X784584D02*
X780056D01*
X775615Y418344D01*
X771432Y416611D01*
X767667Y414095D01*
X764465Y410893D01*
X761949Y407128D01*
X760216Y402945D01*
X759333Y398504D01*
Y393976D01*
X760216Y389535D01*
X761949Y385352D01*
X764465Y381587D01*
X767667Y378385D01*
X771432Y375869D01*
X775615Y374136D01*
X780056Y373253D01*
X784584D01*
X789025Y374136D01*
X793208Y375869D01*
X796973Y378385D01*
X800175Y381587D01*
X802691Y385352D01*
X804424Y389535D01*
X805307Y393976D01*
Y398504D01*
X804424Y402945D01*
X802691Y407128D01*
X800175Y410893D01*
X796973Y414095D01*
X793208Y416611D01*
X789025Y418344D01*
X784584Y419227D01*
D02*
G37*
G36*
X600434D02*
X595906D01*
X591465Y418344D01*
X587282Y416611D01*
X583517Y414095D01*
X580315Y410893D01*
X577799Y407128D01*
X576066Y402945D01*
X575183Y398504D01*
Y393976D01*
X576066Y389535D01*
X577799Y385352D01*
X580315Y381587D01*
X583517Y378385D01*
X587282Y375869D01*
X591465Y374136D01*
X595906Y373253D01*
X600434D01*
X604875Y374136D01*
X609058Y375869D01*
X612823Y378385D01*
X616025Y381587D01*
X618541Y385352D01*
X620274Y389535D01*
X621157Y393976D01*
Y398504D01*
X620274Y402945D01*
X618541Y407128D01*
X616025Y410893D01*
X612823Y414095D01*
X609058Y416611D01*
X604875Y418344D01*
X600434Y419227D01*
D02*
G37*
G36*
X1019235Y300830D02*
X996695D01*
Y278290D01*
X1019235D01*
Y300830D01*
D02*
G37*
G36*
X833815D02*
X811275D01*
Y278290D01*
X833815D01*
Y300830D01*
D02*
G37*
G36*
X648395D02*
X625855D01*
Y278290D01*
X648395D01*
Y300830D01*
D02*
G37*
G36*
X914510Y223320D02*
X878850D01*
Y188160D01*
X891242D01*
Y103225D01*
X891656Y101144D01*
X892834Y99379D01*
X921796Y70418D01*
X922093Y69310D01*
X923577Y66740D01*
X925675Y64642D01*
X928245Y63158D01*
X931111Y62390D01*
X934079D01*
X936945Y63158D01*
X939515Y64642D01*
X941613Y66740D01*
X943097Y69310D01*
X943865Y72176D01*
Y75144D01*
X943097Y78010D01*
X941613Y80580D01*
X939515Y82678D01*
X936945Y84162D01*
X934079Y84930D01*
X931111D01*
X928245Y84162D01*
X925675Y82678D01*
X925296Y82300D01*
X902119Y105478D01*
Y188160D01*
X914510D01*
Y196093D01*
X917050Y196812D01*
X918556Y194559D01*
X920999Y192116D01*
X923872Y190196D01*
X927064Y188874D01*
X930452Y188200D01*
X933907D01*
X937296Y188874D01*
X940488Y190196D01*
X943361Y192116D01*
X945804Y194559D01*
X947724Y197432D01*
X949046Y200624D01*
X949720Y204013D01*
Y207467D01*
X949046Y210856D01*
X947724Y214048D01*
X945804Y216921D01*
X943361Y219364D01*
X940488Y221284D01*
X937296Y222606D01*
X933907Y223280D01*
X930452D01*
X927064Y222606D01*
X923872Y221284D01*
X920999Y219364D01*
X918556Y216921D01*
X917050Y214667D01*
X914510Y215387D01*
Y223320D01*
D02*
G37*
G36*
X726550D02*
X690890D01*
Y188160D01*
X703281D01*
Y112115D01*
X703696Y110034D01*
X704874Y108269D01*
X736348Y76796D01*
X735905Y75144D01*
Y72176D01*
X736673Y69310D01*
X738157Y66740D01*
X740255Y64642D01*
X742825Y63158D01*
X745691Y62390D01*
X748659D01*
X751525Y63158D01*
X754095Y64642D01*
X756193Y66740D01*
X757677Y69310D01*
X758445Y72176D01*
Y75144D01*
X757677Y78010D01*
X756193Y80580D01*
X754095Y82678D01*
X751525Y84162D01*
X748659Y84930D01*
X745691D01*
X744039Y84487D01*
X714158Y114368D01*
Y188160D01*
X726550D01*
Y196093D01*
X729090Y196812D01*
X730596Y194559D01*
X733039Y192116D01*
X735912Y190196D01*
X739104Y188874D01*
X742493Y188200D01*
X745947D01*
X749336Y188874D01*
X752528Y190196D01*
X755401Y192116D01*
X757844Y194559D01*
X759764Y197432D01*
X761086Y200624D01*
X761760Y204013D01*
Y207467D01*
X761086Y210856D01*
X759764Y214048D01*
X757844Y216921D01*
X755401Y219364D01*
X752528Y221284D01*
X749336Y222606D01*
X745947Y223280D01*
X742493D01*
X739104Y222606D01*
X735912Y221284D01*
X733039Y219364D01*
X730596Y216921D01*
X729090Y214667D01*
X726550Y215387D01*
Y223320D01*
D02*
G37*
G36*
X542400D02*
X506740D01*
Y188160D01*
X519132D01*
Y109575D01*
X519546Y107494D01*
X520724Y105729D01*
X550659Y75795D01*
X550485Y75144D01*
Y72176D01*
X551253Y69310D01*
X552737Y66740D01*
X554835Y64642D01*
X557405Y63158D01*
X560271Y62390D01*
X563239D01*
X566105Y63158D01*
X568675Y64642D01*
X570773Y66740D01*
X572257Y69310D01*
X573025Y72176D01*
Y75144D01*
X572257Y78010D01*
X570773Y80580D01*
X568675Y82678D01*
X566105Y84162D01*
X563239Y84930D01*
X560271D01*
X557617Y84219D01*
X530009Y111828D01*
Y188160D01*
X542400D01*
Y196093D01*
X544940Y196812D01*
X546446Y194559D01*
X548889Y192116D01*
X551762Y190196D01*
X554954Y188874D01*
X558343Y188200D01*
X561797D01*
X565186Y188874D01*
X568378Y190196D01*
X571251Y192116D01*
X573694Y194559D01*
X575614Y197432D01*
X576936Y200624D01*
X577610Y204013D01*
Y207467D01*
X576936Y210856D01*
X575614Y214048D01*
X573694Y216921D01*
X571251Y219364D01*
X568378Y221284D01*
X565186Y222606D01*
X561797Y223280D01*
X558343D01*
X554954Y222606D01*
X551762Y221284D01*
X548889Y219364D01*
X546446Y216921D01*
X544940Y214667D01*
X542400Y215387D01*
Y223320D01*
D02*
G37*
G36*
X972544Y203327D02*
X968016D01*
X963575Y202444D01*
X959392Y200711D01*
X955627Y198195D01*
X952425Y194993D01*
X949909Y191228D01*
X948176Y187045D01*
X947293Y182604D01*
Y178076D01*
X948176Y173635D01*
X949909Y169452D01*
X952425Y165687D01*
X955627Y162485D01*
X959392Y159969D01*
X963575Y158236D01*
X968016Y157353D01*
X972544D01*
X976985Y158236D01*
X981168Y159969D01*
X984933Y162485D01*
X988135Y165687D01*
X990651Y169452D01*
X992384Y173635D01*
X993267Y178076D01*
Y182604D01*
X992384Y187045D01*
X990651Y191228D01*
X988135Y194993D01*
X984933Y198195D01*
X981168Y200711D01*
X976985Y202444D01*
X972544Y203327D01*
D02*
G37*
G36*
X784584D02*
X780056D01*
X775615Y202444D01*
X771432Y200711D01*
X767667Y198195D01*
X764465Y194993D01*
X761949Y191228D01*
X760216Y187045D01*
X759333Y182604D01*
Y178076D01*
X760216Y173635D01*
X761949Y169452D01*
X764465Y165687D01*
X767667Y162485D01*
X771432Y159969D01*
X775615Y158236D01*
X780056Y157353D01*
X784584D01*
X789025Y158236D01*
X793208Y159969D01*
X796973Y162485D01*
X800175Y165687D01*
X802691Y169452D01*
X804424Y173635D01*
X805307Y178076D01*
Y182604D01*
X804424Y187045D01*
X802691Y191228D01*
X800175Y194993D01*
X796973Y198195D01*
X793208Y200711D01*
X789025Y202444D01*
X784584Y203327D01*
D02*
G37*
G36*
X600434D02*
X595906D01*
X591465Y202444D01*
X587282Y200711D01*
X583517Y198195D01*
X580315Y194993D01*
X577799Y191228D01*
X576066Y187045D01*
X575183Y182604D01*
Y178076D01*
X576066Y173635D01*
X577799Y169452D01*
X580315Y165687D01*
X583517Y162485D01*
X587282Y159969D01*
X591465Y158236D01*
X595906Y157353D01*
X600434D01*
X604875Y158236D01*
X609058Y159969D01*
X612823Y162485D01*
X616025Y165687D01*
X618541Y169452D01*
X620274Y173635D01*
X621157Y178076D01*
Y182604D01*
X620274Y187045D01*
X618541Y191228D01*
X616025Y194993D01*
X612823Y198195D01*
X609058Y200711D01*
X604875Y202444D01*
X600434Y203327D01*
D02*
G37*
G36*
X833815Y84930D02*
X811275D01*
Y62390D01*
X833815D01*
Y84930D01*
D02*
G37*
G36*
X648395D02*
X625855D01*
Y62390D01*
X648395D01*
Y84930D01*
D02*
G37*
G36*
X1095847Y92710D02*
X1091093D01*
X1086432Y91783D01*
X1082040Y89964D01*
X1078088Y87323D01*
X1074727Y83962D01*
X1072086Y80010D01*
X1070267Y75619D01*
X1069340Y70957D01*
Y66203D01*
X1070267Y61542D01*
X1072086Y57150D01*
X1074727Y53198D01*
X1078088Y49837D01*
X1082040Y47196D01*
X1086432Y45377D01*
X1091093Y44450D01*
X1095847D01*
X1100508Y45377D01*
X1104900Y47196D01*
X1108852Y49837D01*
X1112213Y53198D01*
X1114854Y57150D01*
X1116673Y61542D01*
X1117600Y66203D01*
Y70957D01*
X1116673Y75619D01*
X1114854Y80010D01*
X1112213Y83962D01*
X1108852Y87323D01*
X1104900Y89964D01*
X1100508Y91783D01*
X1095847Y92710D01*
D02*
G37*
G36*
X477357D02*
X472603D01*
X467942Y91783D01*
X463550Y89964D01*
X459598Y87323D01*
X456237Y83962D01*
X453596Y80010D01*
X451777Y75619D01*
X450850Y70957D01*
Y66203D01*
X451777Y61542D01*
X453596Y57150D01*
X456237Y53198D01*
X459598Y49837D01*
X463550Y47196D01*
X467942Y45377D01*
X472603Y44450D01*
X477357D01*
X482019Y45377D01*
X486410Y47196D01*
X490362Y49837D01*
X493723Y53198D01*
X496364Y57150D01*
X498183Y61542D01*
X499110Y66203D01*
Y70957D01*
X498183Y75619D01*
X496364Y80010D01*
X493723Y83962D01*
X490362Y87323D01*
X486410Y89964D01*
X482019Y91783D01*
X477357Y92710D01*
D02*
G37*
%LPD*%
D26*
X961110Y812800D02*
X995680D01*
X961110Y863600D02*
X1047750D01*
X961110Y787400D02*
X962380Y786130D01*
X995680D01*
X802586Y834724D02*
X837866D01*
X844296Y827786D02*
X844550Y828040D01*
X844296Y722884D02*
Y827786D01*
X799110Y838200D02*
X802586Y834724D01*
X837866D02*
X844550Y828040D01*
X844296Y722884D02*
X871220Y695960D01*
Y571500D02*
Y695960D01*
X864870Y565150D02*
X871220Y571500D01*
X610870Y885483D02*
X617940Y892553D01*
X610870Y788670D02*
X659070Y740470D01*
X617940Y892553D02*
Y892960D01*
X610870Y788670D02*
Y885483D01*
X659070Y664904D02*
Y740470D01*
X999180Y693420D02*
X1030930Y661670D01*
Y447290D02*
X1031180Y447040D01*
Y237490D02*
Y447040D01*
X1030930Y447290D02*
Y661670D01*
X999180Y693420D02*
Y723930D01*
X971190Y751920D02*
X999180Y723930D01*
X971190Y751920D02*
Y753789D01*
X962979Y762000D02*
X971190Y753789D01*
X961110Y762000D02*
X962979D01*
X797241D02*
X799110D01*
X789030Y753789D02*
X797241Y762000D01*
X789030Y731781D02*
Y753789D01*
X786130Y728882D02*
X789030Y731781D01*
X786130Y727710D02*
Y728882D01*
X961110Y889000D02*
X998220D01*
X659070Y231140D02*
Y447040D01*
Y661420D01*
Y661670D02*
Y664904D01*
X795020Y787400D02*
X799110D01*
X661152Y666986D02*
X674606D01*
X795020Y787400D01*
X659070Y664904D02*
X661152Y666986D01*
X961110Y914400D02*
X1017270D01*
X961110Y838200D02*
X1056640D01*
X1083310Y149005D02*
Y811530D01*
X1056640Y838200D02*
X1083310Y811530D01*
X1007965Y73660D02*
X1083310Y149005D01*
X833120Y674432D02*
X833264Y674287D01*
Y672646D02*
Y674287D01*
X826436Y809324D02*
X833120Y802640D01*
Y674432D02*
Y802640D01*
X844490Y448310D02*
Y661670D01*
X843220Y447040D02*
X844490Y448310D01*
X843220Y231140D02*
Y447040D01*
X799110Y812800D02*
X802586Y809324D01*
X826436D01*
X833264Y672646D02*
X844240Y661670D01*
X844490D01*
X708720Y112115D02*
X747175Y73660D01*
X708720Y112115D02*
Y205740D01*
X896680Y103225D02*
Y205740D01*
Y103225D02*
X926245Y73660D01*
X524570Y540105D02*
X560485Y504190D01*
X524570Y540105D02*
Y636270D01*
Y109575D02*
Y205740D01*
Y109575D02*
X560485Y73660D01*
X524570Y325475D02*
Y421640D01*
Y325475D02*
X560485Y289560D01*
X708720Y325475D02*
Y421640D01*
Y325475D02*
X744635Y289560D01*
X896680Y325475D02*
Y421640D01*
Y325475D02*
X932595Y289560D01*
X896680Y540105D02*
X932595Y504190D01*
X896680Y540105D02*
Y636270D01*
X709990Y540105D02*
X745905Y504190D01*
X709990Y540105D02*
Y636270D01*
D27*
X487680Y814925D02*
D03*
X932595Y73660D02*
D03*
X747175D02*
D03*
X561755D02*
D03*
X932595Y289560D02*
D03*
X561755D02*
D03*
X932595Y504190D02*
D03*
X745905D02*
D03*
X560485D02*
D03*
X747175Y289560D02*
D03*
D28*
X487680Y739555D02*
D03*
D29*
X711200Y858520D02*
D03*
Y833120D02*
D03*
Y807720D02*
D03*
D30*
Y782320D02*
D03*
D31*
X822545Y289560D02*
D03*
X637125D02*
D03*
X1007965D02*
D03*
Y504190D02*
D03*
X821275D02*
D03*
X635855D02*
D03*
X637125Y73660D02*
D03*
X822545D02*
D03*
X1007965D02*
D03*
D32*
X592940Y747960D02*
D03*
X617940D02*
D03*
X567940Y892960D02*
D03*
X617940D02*
D03*
D33*
X649940Y822960D02*
D03*
X535940D02*
D03*
D34*
X474980Y895350D02*
D03*
X1098550Y900430D02*
D03*
X1093470Y68580D02*
D03*
X474980D02*
D03*
D35*
X567940Y747960D02*
D03*
D36*
X970280Y610870D02*
D03*
Y180340D02*
D03*
X782320D02*
D03*
X598170D02*
D03*
X970280Y396240D02*
D03*
X782320D02*
D03*
X598170D02*
D03*
X783590Y610870D02*
D03*
X598170D02*
D03*
D37*
X623570Y661670D02*
D03*
X560070Y636270D02*
D03*
X745490D02*
D03*
X808990Y661670D02*
D03*
X995680D02*
D03*
X932180Y636270D02*
D03*
X560070Y421640D02*
D03*
X623570Y447040D02*
D03*
X807720D02*
D03*
X744220Y421640D02*
D03*
X932180D02*
D03*
X995680Y447040D02*
D03*
X623570Y231140D02*
D03*
X560070Y205740D02*
D03*
X744220D02*
D03*
X807720Y231140D02*
D03*
X995680D02*
D03*
X932180Y205740D02*
D03*
D38*
X755650Y810260D02*
D03*
X995680Y812800D02*
D03*
X1047750Y863600D02*
D03*
X995680Y786130D02*
D03*
X844550Y828040D02*
D03*
X864870Y565150D02*
D03*
X998220Y889000D02*
D03*
X1017270Y914400D02*
D03*
X786130Y727710D02*
D03*
D39*
X961110Y762000D02*
D03*
Y787400D02*
D03*
Y812800D02*
D03*
Y838200D02*
D03*
Y863600D02*
D03*
Y889000D02*
D03*
Y914400D02*
D03*
X799110Y762000D02*
D03*
Y787400D02*
D03*
Y812800D02*
D03*
Y838200D02*
D03*
Y863600D02*
D03*
Y889000D02*
D03*
Y914400D02*
D03*
D40*
X1031180Y231140D02*
D03*
Y447040D02*
D03*
Y661670D02*
D03*
X659070Y231140D02*
D03*
Y447040D02*
D03*
Y661670D02*
D03*
X843220Y231140D02*
D03*
Y447040D02*
D03*
X844490Y661670D02*
D03*
X524570Y636270D02*
D03*
X709990D02*
D03*
X896680D02*
D03*
X524570Y421640D02*
D03*
X708720D02*
D03*
X896680D02*
D03*
X524570Y205740D02*
D03*
X708720D02*
D03*
X896680D02*
D03*
D41*
X683260Y861060D02*
X698500Y876300D01*
X683260Y821690D02*
Y861060D01*
X698500Y876300D02*
X782907D01*
X795607Y863600D02*
X799110D01*
X782907Y876300D02*
X795607Y863600D01*
X697230Y807720D02*
X708510D01*
X683260Y821690D02*
X697230Y807720D01*
M02*
