G04*
G04 #@! TF.GenerationSoftware,Altium Limited,Altium Designer,25.8.1 (18)*
G04*
G04 Layer_Physical_Order=1*
G04 Layer_Color=255*
%FSLAX44Y44*%
%MOMM*%
G71*
G04*
G04 #@! TF.SameCoordinates,3EE7CF34-C713-4C1D-ADE3-E8542D81B0F6*
G04*
G04*
G04 #@! TF.FilePolarity,Positive*
G04*
G01*
G75*
%ADD26C,0.3048*%
%ADD27C,1.2380*%
%ADD28R,1.2380X1.2380*%
%ADD29C,1.4500*%
%ADD30R,1.4500X1.4500*%
%ADD31R,1.2380X1.2380*%
%ADD32C,1.5000*%
%ADD33C,4.7400*%
%ADD34C,3.8100*%
%ADD35R,1.5000X1.5000*%
%ADD36C,4.0894*%
%ADD37C,3.0000*%
%ADD38C,0.7620*%
G36*
X1141656Y20394D02*
X426795D01*
Y943536D01*
X825450D01*
Y917350D01*
X825647Y916359D01*
X826209Y915519D01*
X827049Y914957D01*
X828040Y914760D01*
X845820D01*
X846811Y914957D01*
X847651Y915519D01*
X848213Y916359D01*
X848410Y917350D01*
Y943536D01*
X911810D01*
Y917350D01*
X912007Y916359D01*
X912569Y915519D01*
X913409Y914957D01*
X914400Y914760D01*
X932180D01*
X933171Y914957D01*
X934011Y915519D01*
X934573Y916359D01*
X934770Y917350D01*
Y943536D01*
X1141656D01*
Y20394D01*
D02*
G37*
%LPC*%
G36*
X1018440Y923290D02*
X1016100D01*
X1013839Y922684D01*
X1011811Y921514D01*
X1010156Y919859D01*
X1008986Y917831D01*
X1008380Y915570D01*
Y913230D01*
X1008986Y910969D01*
X1010156Y908941D01*
X1010984Y908114D01*
X1000471Y897601D01*
X999390Y897890D01*
X997050D01*
X994789Y897284D01*
X992761Y896114D01*
X991106Y894459D01*
X989936Y892431D01*
X989330Y890170D01*
Y887830D01*
X989936Y885569D01*
X991106Y883541D01*
X992761Y881886D01*
X994789Y880716D01*
X997050Y880110D01*
X999390D01*
X999413Y880116D01*
X1004212Y875317D01*
Y820433D01*
X1001672Y819381D01*
X1001139Y819914D01*
X999111Y821084D01*
X996850Y821690D01*
X994510D01*
X994487Y821684D01*
X993430Y822742D01*
X991665Y823921D01*
X989584Y824334D01*
X855390D01*
X853440Y826870D01*
Y829210D01*
X852834Y831471D01*
X851664Y833499D01*
X850009Y835154D01*
X847981Y836324D01*
X845720Y836930D01*
X843380D01*
X841119Y836324D01*
X839091Y835154D01*
X837436Y833499D01*
X836266Y831471D01*
X835660Y829210D01*
Y827129D01*
X750283D01*
X722893Y854518D01*
X723530Y856897D01*
Y860143D01*
X722690Y863279D01*
X721067Y866091D01*
X718771Y868387D01*
X715959Y870010D01*
X712823Y870850D01*
X709577D01*
X706441Y870010D01*
X703629Y868387D01*
X701333Y866091D01*
X699710Y863279D01*
X698870Y860143D01*
Y856897D01*
X699710Y853761D01*
X701333Y850949D01*
X703629Y848653D01*
X706193Y847173D01*
X706398Y845820D01*
X706193Y844467D01*
X703629Y842987D01*
X701333Y840691D01*
X699710Y837879D01*
X698870Y834743D01*
Y831497D01*
X699710Y828361D01*
X701333Y825549D01*
X703629Y823253D01*
X706193Y821773D01*
X706398Y820420D01*
X706193Y819067D01*
X703629Y817587D01*
X701333Y815291D01*
X699710Y812479D01*
X698870Y809343D01*
Y806097D01*
X699710Y802961D01*
X701333Y800149D01*
X703629Y797853D01*
X706441Y796230D01*
X709577Y795390D01*
X712823D01*
X715959Y796230D01*
X718771Y797853D01*
X721067Y800149D01*
X722690Y802961D01*
X723530Y806097D01*
Y809343D01*
X723470Y809567D01*
X725748Y810881D01*
X742914Y793714D01*
X744679Y792535D01*
X746760Y792122D01*
X981997D01*
X986796Y787323D01*
X986790Y787300D01*
Y784960D01*
X987396Y782699D01*
X988566Y780671D01*
X990221Y779016D01*
X992249Y777846D01*
X994510Y777240D01*
X996850D01*
X999111Y777846D01*
X1001139Y779016D01*
X1001672Y779549D01*
X1004212Y778497D01*
Y748030D01*
X1004219Y747992D01*
Y747750D01*
X976559Y720090D01*
X794675D01*
X793908Y721247D01*
X793462Y722630D01*
X794414Y724279D01*
X795020Y726540D01*
Y728880D01*
X794414Y731141D01*
X793244Y733169D01*
X791589Y734824D01*
X789561Y735994D01*
X787300Y736600D01*
X784960D01*
X782699Y735994D01*
X780671Y734824D01*
X779016Y733169D01*
X779005Y733148D01*
X695673D01*
X656626Y772196D01*
X654861Y773374D01*
X652780Y773789D01*
X516475D01*
X514394Y773374D01*
X512629Y772196D01*
X491259Y750825D01*
X476410D01*
Y728285D01*
X498950D01*
Y743134D01*
X518728Y762912D01*
X554953D01*
X555360Y760540D01*
X555360D01*
Y735380D01*
X562501D01*
Y717700D01*
X562915Y715619D01*
X564094Y713854D01*
X590914Y687034D01*
X592679Y685855D01*
X594760Y685442D01*
X995680D01*
X997761Y685855D01*
X999526Y687034D01*
X1035086Y722594D01*
X1036264Y724359D01*
X1036678Y726440D01*
Y860757D01*
X1039219Y861092D01*
X1039466Y860169D01*
X1040636Y858141D01*
X1042291Y856486D01*
X1044319Y855316D01*
X1046580Y854710D01*
X1048920D01*
X1048943Y854716D01*
X1052471Y851187D01*
Y341758D01*
X1011544Y300830D01*
X996695D01*
Y285981D01*
X985392Y274678D01*
X845118D01*
X833815Y285981D01*
Y300830D01*
X811275D01*
Y285981D01*
X799972Y274678D01*
X659698D01*
X648395Y285981D01*
Y300830D01*
X625855D01*
Y278290D01*
X640704D01*
X653599Y265394D01*
X655364Y264216D01*
X657445Y263801D01*
X802225D01*
X804306Y264216D01*
X806071Y265394D01*
X818966Y278290D01*
X826124D01*
X839019Y265394D01*
X840784Y264216D01*
X842865Y263801D01*
X987645D01*
X989726Y264216D01*
X991491Y265394D01*
X1004386Y278290D01*
X1019235D01*
Y293139D01*
X1061756Y335659D01*
X1062934Y337424D01*
X1063348Y339505D01*
Y853440D01*
X1062934Y855521D01*
X1061756Y857286D01*
X1056634Y862407D01*
X1056640Y862430D01*
Y864770D01*
X1056034Y867031D01*
X1054864Y869059D01*
X1053209Y870714D01*
X1051181Y871884D01*
X1048920Y872490D01*
X1046580D01*
X1044319Y871884D01*
X1042291Y870714D01*
X1040636Y869059D01*
X1039466Y867031D01*
X1039219Y866108D01*
X1036678Y866443D01*
Y900430D01*
X1036264Y902511D01*
X1035086Y904276D01*
X1026154Y913207D01*
X1026160Y913230D01*
Y915570D01*
X1025554Y917831D01*
X1024384Y919859D01*
X1022729Y921514D01*
X1020701Y922684D01*
X1018440Y923290D01*
D02*
G37*
G36*
X905510Y938990D02*
X854710D01*
X853719Y938793D01*
X852879Y938231D01*
X852317Y937391D01*
X852120Y936400D01*
Y891950D01*
X852317Y890959D01*
X852879Y890119D01*
X853719Y889557D01*
X854710Y889360D01*
X905510D01*
X906501Y889557D01*
X907341Y890119D01*
X907903Y890959D01*
X908100Y891950D01*
Y936400D01*
X907903Y937391D01*
X907341Y938231D01*
X906501Y938793D01*
X905510Y938990D01*
D02*
G37*
G36*
X619596Y905540D02*
X616284D01*
X613084Y904683D01*
X610216Y903027D01*
X607873Y900684D01*
X606217Y897816D01*
X605360Y894616D01*
Y891304D01*
X606217Y888104D01*
X607873Y885236D01*
X610216Y882894D01*
X613084Y881237D01*
X616284Y880380D01*
X619596D01*
X622796Y881237D01*
X625664Y882894D01*
X628007Y885236D01*
X629663Y888104D01*
X630520Y891304D01*
Y894616D01*
X629663Y897816D01*
X628007Y900684D01*
X625664Y903027D01*
X622796Y904683D01*
X619596Y905540D01*
D02*
G37*
G36*
X569596D02*
X566284D01*
X563084Y904683D01*
X560216Y903027D01*
X557873Y900684D01*
X556217Y897816D01*
X555360Y894616D01*
Y891304D01*
X556043Y888754D01*
X537597Y870309D01*
X516890D01*
X514809Y869894D01*
X513044Y868716D01*
X483834Y839506D01*
X482655Y837741D01*
X482242Y835660D01*
Y824799D01*
X480760Y823943D01*
X478662Y821845D01*
X477178Y819275D01*
X476410Y816409D01*
Y813441D01*
X477178Y810575D01*
X478662Y808005D01*
X480760Y805907D01*
X483330Y804423D01*
X486196Y803655D01*
X489164D01*
X492030Y804423D01*
X494600Y805907D01*
X496698Y808005D01*
X498182Y810575D01*
X498950Y813441D01*
Y816409D01*
X498182Y819275D01*
X496698Y821845D01*
X494600Y823943D01*
X493119Y824799D01*
Y833407D01*
X519143Y859432D01*
X539850D01*
X541931Y859846D01*
X543696Y861024D01*
X563734Y881063D01*
X566284Y880380D01*
X569596D01*
X572796Y881237D01*
X575664Y882894D01*
X578007Y885236D01*
X579663Y888104D01*
X580520Y891304D01*
Y894616D01*
X579663Y897816D01*
X578007Y900684D01*
X575664Y903027D01*
X572796Y904683D01*
X569596Y905540D01*
D02*
G37*
G36*
X1100927Y924560D02*
X1096173D01*
X1091512Y923633D01*
X1087120Y921814D01*
X1083168Y919173D01*
X1079807Y915812D01*
X1077166Y911860D01*
X1075347Y907468D01*
X1074420Y902807D01*
Y898053D01*
X1075347Y893391D01*
X1077166Y889000D01*
X1079807Y885048D01*
X1083168Y881687D01*
X1087120Y879046D01*
X1091512Y877227D01*
X1096173Y876300D01*
X1100927D01*
X1105589Y877227D01*
X1109980Y879046D01*
X1113932Y881687D01*
X1117293Y885048D01*
X1119934Y889000D01*
X1121753Y893391D01*
X1122680Y898053D01*
Y902807D01*
X1121753Y907468D01*
X1119934Y911860D01*
X1117293Y915812D01*
X1113932Y919173D01*
X1109980Y921814D01*
X1105589Y923633D01*
X1100927Y924560D01*
D02*
G37*
G36*
X932180Y905970D02*
X914400D01*
X913409Y905773D01*
X912569Y905211D01*
X912007Y904371D01*
X911810Y903380D01*
Y876710D01*
X912007Y875719D01*
X912569Y874879D01*
X913409Y874317D01*
X914400Y874120D01*
X932180D01*
X933171Y874317D01*
X934011Y874879D01*
X934573Y875719D01*
X934770Y876710D01*
Y903380D01*
X934573Y904371D01*
X934011Y905211D01*
X933171Y905773D01*
X932180Y905970D01*
D02*
G37*
G36*
X845820D02*
X828040D01*
X827049Y905773D01*
X826209Y905211D01*
X825647Y904371D01*
X825450Y903380D01*
Y876710D01*
X825647Y875719D01*
X826209Y874879D01*
X827049Y874317D01*
X828040Y874120D01*
X845820D01*
X846811Y874317D01*
X847651Y874879D01*
X848213Y875719D01*
X848410Y876710D01*
Y903380D01*
X848213Y904371D01*
X847651Y905211D01*
X846811Y905773D01*
X845820Y905970D01*
D02*
G37*
G36*
X477357Y919480D02*
X472603D01*
X467942Y918553D01*
X463550Y916734D01*
X459598Y914093D01*
X456237Y910732D01*
X453596Y906780D01*
X451777Y902389D01*
X450850Y897727D01*
Y892973D01*
X451777Y888311D01*
X453596Y883920D01*
X456237Y879968D01*
X459598Y876607D01*
X463550Y873966D01*
X467942Y872147D01*
X472603Y871220D01*
X477357D01*
X482019Y872147D01*
X486410Y873966D01*
X490362Y876607D01*
X493723Y879968D01*
X496364Y883920D01*
X498183Y888311D01*
X499110Y892973D01*
Y897727D01*
X498183Y902389D01*
X496364Y906780D01*
X493723Y910732D01*
X490362Y914093D01*
X486410Y916734D01*
X482019Y918553D01*
X477357Y919480D01*
D02*
G37*
G36*
X652524Y849200D02*
X651210D01*
Y824230D01*
X676180D01*
Y825544D01*
X675172Y830614D01*
X673194Y835389D01*
X670322Y839687D01*
X666667Y843342D01*
X662369Y846214D01*
X657594Y848192D01*
X652524Y849200D01*
D02*
G37*
G36*
X648670D02*
X647356D01*
X642286Y848192D01*
X637511Y846214D01*
X633213Y843342D01*
X629558Y839687D01*
X626686Y835389D01*
X624708Y830614D01*
X623700Y825544D01*
Y824230D01*
X648670D01*
Y849200D01*
D02*
G37*
G36*
X538524D02*
X537210D01*
Y824230D01*
X562180D01*
Y825544D01*
X561172Y830614D01*
X559194Y835389D01*
X556322Y839687D01*
X552667Y843342D01*
X548369Y846214D01*
X543594Y848192D01*
X538524Y849200D01*
D02*
G37*
G36*
X534670D02*
X533356D01*
X528286Y848192D01*
X523511Y846214D01*
X519213Y843342D01*
X515558Y839687D01*
X512686Y835389D01*
X510708Y830614D01*
X509700Y825544D01*
Y824230D01*
X534670D01*
Y849200D01*
D02*
G37*
G36*
X676180Y821690D02*
X651210D01*
Y796720D01*
X652524D01*
X657594Y797728D01*
X662369Y799706D01*
X666667Y802578D01*
X670322Y806233D01*
X673194Y810531D01*
X675172Y815306D01*
X676180Y820376D01*
Y821690D01*
D02*
G37*
G36*
X648670D02*
X623700D01*
Y820376D01*
X624708Y815306D01*
X626686Y810531D01*
X629558Y806233D01*
X633213Y802578D01*
X637511Y799706D01*
X642286Y797728D01*
X647356Y796720D01*
X648670D01*
Y821690D01*
D02*
G37*
G36*
X562180D02*
X537210D01*
Y796720D01*
X538524D01*
X543594Y797728D01*
X548369Y799706D01*
X552667Y802578D01*
X556322Y806233D01*
X559194Y810531D01*
X561172Y815306D01*
X562180Y820376D01*
Y821690D01*
D02*
G37*
G36*
X534670D02*
X509700D01*
Y820376D01*
X510708Y815306D01*
X512686Y810531D01*
X515558Y806233D01*
X519213Y802578D01*
X523511Y799706D01*
X528286Y797728D01*
X533356Y796720D01*
X534670D01*
Y821690D01*
D02*
G37*
G36*
X720990Y792110D02*
X712470D01*
Y783590D01*
X720990D01*
Y792110D01*
D02*
G37*
G36*
X709930D02*
X701410D01*
Y783590D01*
X709930D01*
Y792110D01*
D02*
G37*
G36*
X720990Y781050D02*
X712470D01*
Y772530D01*
X720990D01*
Y781050D01*
D02*
G37*
G36*
X709930D02*
X701410D01*
Y772530D01*
X709930D01*
Y781050D01*
D02*
G37*
G36*
X905510Y767540D02*
X848360D01*
X847369Y767343D01*
X846529Y766781D01*
X845967Y765941D01*
X845770Y764950D01*
Y739550D01*
X845967Y738559D01*
X846529Y737719D01*
X847369Y737157D01*
X848360Y736960D01*
X905510D01*
X906501Y737157D01*
X907341Y737719D01*
X907903Y738559D01*
X908100Y739550D01*
Y764950D01*
X907903Y765941D01*
X907341Y766781D01*
X906501Y767343D01*
X905510Y767540D01*
D02*
G37*
G36*
X997408Y679210D02*
X993952D01*
X990564Y678536D01*
X987372Y677214D01*
X984499Y675294D01*
X982056Y672851D01*
X980136Y669978D01*
X978814Y666786D01*
X978140Y663398D01*
Y659942D01*
X978814Y656554D01*
X980136Y653362D01*
X982056Y650489D01*
X984499Y648046D01*
X987372Y646126D01*
X990564Y644804D01*
X993952Y644130D01*
X997408D01*
X1000796Y644804D01*
X1003988Y646126D01*
X1006861Y648046D01*
X1009304Y650489D01*
X1011224Y653362D01*
X1012546Y656554D01*
X1013220Y659942D01*
Y663398D01*
X1012546Y666786D01*
X1011224Y669978D01*
X1009304Y672851D01*
X1006861Y675294D01*
X1003988Y677214D01*
X1000796Y678536D01*
X997408Y679210D01*
D02*
G37*
G36*
X810717D02*
X807262D01*
X803874Y678536D01*
X800682Y677214D01*
X797809Y675294D01*
X795366Y672851D01*
X793446Y669978D01*
X792124Y666786D01*
X791450Y663398D01*
Y659942D01*
X792124Y656554D01*
X793446Y653362D01*
X795366Y650489D01*
X797809Y648046D01*
X800682Y646126D01*
X803874Y644804D01*
X807262Y644130D01*
X810717D01*
X814106Y644804D01*
X817298Y646126D01*
X820171Y648046D01*
X822614Y650489D01*
X824534Y653362D01*
X825856Y656554D01*
X826530Y659942D01*
Y663398D01*
X825856Y666786D01*
X824534Y669978D01*
X822614Y672851D01*
X820171Y675294D01*
X817298Y677214D01*
X814106Y678536D01*
X810717Y679210D01*
D02*
G37*
G36*
X625298D02*
X621842D01*
X618454Y678536D01*
X615262Y677214D01*
X612389Y675294D01*
X609946Y672851D01*
X608026Y669978D01*
X606704Y666786D01*
X606030Y663398D01*
Y659942D01*
X606704Y656554D01*
X608026Y653362D01*
X609946Y650489D01*
X612389Y648046D01*
X615262Y646126D01*
X618454Y644804D01*
X621842Y644130D01*
X625298D01*
X628686Y644804D01*
X631878Y646126D01*
X634751Y648046D01*
X637194Y650489D01*
X639114Y653362D01*
X640436Y656554D01*
X641110Y659942D01*
Y663398D01*
X640436Y666786D01*
X639114Y669978D01*
X637194Y672851D01*
X634751Y675294D01*
X631878Y677214D01*
X628686Y678536D01*
X625298Y679210D01*
D02*
G37*
G36*
X933907Y653810D02*
X930452D01*
X927064Y653136D01*
X923872Y651814D01*
X920999Y649894D01*
X918556Y647451D01*
X916636Y644578D01*
X915314Y641386D01*
X914640Y637998D01*
Y634543D01*
X915314Y631154D01*
X916636Y627962D01*
X918556Y625089D01*
X920999Y622646D01*
X923872Y620726D01*
X927064Y619404D01*
X930452Y618730D01*
X933907D01*
X937296Y619404D01*
X940488Y620726D01*
X943361Y622646D01*
X945804Y625089D01*
X947724Y627962D01*
X949046Y631154D01*
X949720Y634543D01*
Y637998D01*
X949046Y641386D01*
X947724Y644578D01*
X945804Y647451D01*
X943361Y649894D01*
X940488Y651814D01*
X937296Y653136D01*
X933907Y653810D01*
D02*
G37*
G36*
X747217D02*
X743763D01*
X740374Y653136D01*
X737182Y651814D01*
X734309Y649894D01*
X731866Y647451D01*
X729946Y644578D01*
X728624Y641386D01*
X727950Y637998D01*
Y634543D01*
X728624Y631154D01*
X729946Y627962D01*
X731866Y625089D01*
X734309Y622646D01*
X737182Y620726D01*
X740374Y619404D01*
X743763Y618730D01*
X747217D01*
X750606Y619404D01*
X753798Y620726D01*
X756671Y622646D01*
X759114Y625089D01*
X761034Y627962D01*
X762356Y631154D01*
X763030Y634543D01*
Y637998D01*
X762356Y641386D01*
X761034Y644578D01*
X759114Y647451D01*
X756671Y649894D01*
X753798Y651814D01*
X750606Y653136D01*
X747217Y653810D01*
D02*
G37*
G36*
X561797D02*
X558343D01*
X554954Y653136D01*
X551762Y651814D01*
X548889Y649894D01*
X546446Y647451D01*
X544526Y644578D01*
X543204Y641386D01*
X542530Y637998D01*
Y634543D01*
X543204Y631154D01*
X544526Y627962D01*
X546446Y625089D01*
X548889Y622646D01*
X551762Y620726D01*
X554954Y619404D01*
X558343Y618730D01*
X561797D01*
X565186Y619404D01*
X568378Y620726D01*
X571251Y622646D01*
X573694Y625089D01*
X575614Y627962D01*
X576936Y631154D01*
X577610Y634543D01*
Y637998D01*
X576936Y641386D01*
X575614Y644578D01*
X573694Y647451D01*
X571251Y649894D01*
X568378Y651814D01*
X565186Y653136D01*
X561797Y653810D01*
D02*
G37*
G36*
X972544Y633857D02*
X968016D01*
X963575Y632974D01*
X959392Y631241D01*
X955627Y628725D01*
X952425Y625523D01*
X949909Y621758D01*
X948176Y617575D01*
X947293Y613134D01*
Y608606D01*
X948176Y604165D01*
X949909Y599982D01*
X952425Y596217D01*
X955627Y593015D01*
X959392Y590499D01*
X963575Y588766D01*
X968016Y587883D01*
X972544D01*
X976985Y588766D01*
X981168Y590499D01*
X984933Y593015D01*
X988135Y596217D01*
X990651Y599982D01*
X992384Y604165D01*
X993267Y608606D01*
Y613134D01*
X992384Y617575D01*
X990651Y621758D01*
X988135Y625523D01*
X984933Y628725D01*
X981168Y631241D01*
X976985Y632974D01*
X972544Y633857D01*
D02*
G37*
G36*
X785854D02*
X781326D01*
X776885Y632974D01*
X772702Y631241D01*
X768937Y628725D01*
X765735Y625523D01*
X763219Y621758D01*
X761486Y617575D01*
X760603Y613134D01*
Y608606D01*
X761486Y604165D01*
X763219Y599982D01*
X765735Y596217D01*
X768937Y593015D01*
X772702Y590499D01*
X776885Y588766D01*
X781326Y587883D01*
X785854D01*
X790295Y588766D01*
X794478Y590499D01*
X798243Y593015D01*
X801445Y596217D01*
X803961Y599982D01*
X805694Y604165D01*
X806577Y608606D01*
Y613134D01*
X805694Y617575D01*
X803961Y621758D01*
X801445Y625523D01*
X798243Y628725D01*
X794478Y631241D01*
X790295Y632974D01*
X785854Y633857D01*
D02*
G37*
G36*
X600434D02*
X595906D01*
X591465Y632974D01*
X587282Y631241D01*
X583517Y628725D01*
X580315Y625523D01*
X577799Y621758D01*
X576066Y617575D01*
X575183Y613134D01*
Y608606D01*
X576066Y604165D01*
X577799Y599982D01*
X580315Y596217D01*
X583517Y593015D01*
X587282Y590499D01*
X591465Y588766D01*
X595906Y587883D01*
X600434D01*
X604875Y588766D01*
X609058Y590499D01*
X612823Y593015D01*
X616025Y596217D01*
X618541Y599982D01*
X620274Y604165D01*
X621157Y608606D01*
Y613134D01*
X620274Y617575D01*
X618541Y621758D01*
X616025Y625523D01*
X612823Y628725D01*
X609058Y631241D01*
X604875Y632974D01*
X600434Y633857D01*
D02*
G37*
G36*
X866040Y574040D02*
X863700D01*
X861439Y573434D01*
X859411Y572264D01*
X857756Y570609D01*
X856586Y568581D01*
X855980Y566320D01*
Y563980D01*
X855986Y563957D01*
X817429Y525401D01*
X816251Y523636D01*
X815836Y521555D01*
Y515460D01*
X810005D01*
Y500611D01*
X798702Y489309D01*
X658428D01*
X647125Y500611D01*
Y515460D01*
X624585D01*
Y492920D01*
X639434D01*
X652329Y480024D01*
X654094Y478845D01*
X656175Y478432D01*
X800955D01*
X803036Y478845D01*
X804801Y480024D01*
X817696Y492920D01*
X824854D01*
X837749Y480024D01*
X839514Y478845D01*
X841595Y478432D01*
X986375D01*
X988456Y478845D01*
X990221Y480024D01*
X1003116Y492920D01*
X1019235D01*
Y515460D01*
X996695D01*
Y501881D01*
X984122Y489309D01*
X843848D01*
X832545Y500611D01*
Y515460D01*
X826713D01*
Y519302D01*
X863677Y556266D01*
X863700Y556260D01*
X866040D01*
X868301Y556866D01*
X870329Y558036D01*
X871984Y559691D01*
X873154Y561719D01*
X873760Y563980D01*
Y566320D01*
X873154Y568581D01*
X871984Y570609D01*
X870329Y572264D01*
X868301Y573434D01*
X866040Y574040D01*
D02*
G37*
G36*
X934079Y515460D02*
X931111D01*
X928245Y514692D01*
X925675Y513208D01*
X923577Y511110D01*
X922093Y508540D01*
X921325Y505674D01*
Y502706D01*
X922093Y499840D01*
X923577Y497270D01*
X925675Y495172D01*
X928245Y493688D01*
X931111Y492920D01*
X934079D01*
X936945Y493688D01*
X939515Y495172D01*
X941613Y497270D01*
X943097Y499840D01*
X943865Y502706D01*
Y505674D01*
X943097Y508540D01*
X941613Y511110D01*
X939515Y513208D01*
X936945Y514692D01*
X934079Y515460D01*
D02*
G37*
G36*
X747389D02*
X744421D01*
X741555Y514692D01*
X738985Y513208D01*
X736887Y511110D01*
X735403Y508540D01*
X734635Y505674D01*
Y502706D01*
X735403Y499840D01*
X736887Y497270D01*
X738985Y495172D01*
X741555Y493688D01*
X744421Y492920D01*
X747389D01*
X750255Y493688D01*
X752825Y495172D01*
X754923Y497270D01*
X756407Y499840D01*
X757175Y502706D01*
Y505674D01*
X756407Y508540D01*
X754923Y511110D01*
X752825Y513208D01*
X750255Y514692D01*
X747389Y515460D01*
D02*
G37*
G36*
X561969D02*
X559001D01*
X556135Y514692D01*
X553565Y513208D01*
X551467Y511110D01*
X549983Y508540D01*
X549215Y505674D01*
Y502706D01*
X549983Y499840D01*
X551467Y497270D01*
X553565Y495172D01*
X556135Y493688D01*
X559001Y492920D01*
X561969D01*
X564835Y493688D01*
X567405Y495172D01*
X569503Y497270D01*
X570987Y499840D01*
X571755Y502706D01*
Y505674D01*
X570987Y508540D01*
X569503Y511110D01*
X567405Y513208D01*
X564835Y514692D01*
X561969Y515460D01*
D02*
G37*
G36*
X997408Y464580D02*
X993952D01*
X990564Y463906D01*
X987372Y462584D01*
X984499Y460664D01*
X982056Y458221D01*
X980136Y455348D01*
X978814Y452156D01*
X978140Y448768D01*
Y445312D01*
X978814Y441924D01*
X980136Y438732D01*
X982056Y435859D01*
X984499Y433416D01*
X987372Y431496D01*
X990564Y430174D01*
X993952Y429500D01*
X997408D01*
X1000796Y430174D01*
X1003988Y431496D01*
X1006861Y433416D01*
X1009304Y435859D01*
X1011224Y438732D01*
X1012546Y441924D01*
X1013220Y445312D01*
Y448768D01*
X1012546Y452156D01*
X1011224Y455348D01*
X1009304Y458221D01*
X1006861Y460664D01*
X1003988Y462584D01*
X1000796Y463906D01*
X997408Y464580D01*
D02*
G37*
G36*
X809447D02*
X805993D01*
X802604Y463906D01*
X799412Y462584D01*
X796539Y460664D01*
X794096Y458221D01*
X792176Y455348D01*
X790854Y452156D01*
X790180Y448768D01*
Y445312D01*
X790854Y441924D01*
X792176Y438732D01*
X794096Y435859D01*
X796539Y433416D01*
X799412Y431496D01*
X802604Y430174D01*
X805993Y429500D01*
X809447D01*
X812836Y430174D01*
X816028Y431496D01*
X818901Y433416D01*
X821344Y435859D01*
X823264Y438732D01*
X824586Y441924D01*
X825260Y445312D01*
Y448768D01*
X824586Y452156D01*
X823264Y455348D01*
X821344Y458221D01*
X818901Y460664D01*
X816028Y462584D01*
X812836Y463906D01*
X809447Y464580D01*
D02*
G37*
G36*
X625298D02*
X621842D01*
X618454Y463906D01*
X615262Y462584D01*
X612389Y460664D01*
X609946Y458221D01*
X608026Y455348D01*
X606704Y452156D01*
X606030Y448768D01*
Y445312D01*
X606704Y441924D01*
X608026Y438732D01*
X609946Y435859D01*
X612389Y433416D01*
X615262Y431496D01*
X618454Y430174D01*
X621842Y429500D01*
X625298D01*
X628686Y430174D01*
X631878Y431496D01*
X634751Y433416D01*
X637194Y435859D01*
X639114Y438732D01*
X640436Y441924D01*
X641110Y445312D01*
Y448768D01*
X640436Y452156D01*
X639114Y455348D01*
X637194Y458221D01*
X634751Y460664D01*
X631878Y462584D01*
X628686Y463906D01*
X625298Y464580D01*
D02*
G37*
G36*
X933907Y439180D02*
X930452D01*
X927064Y438506D01*
X923872Y437184D01*
X920999Y435264D01*
X918556Y432821D01*
X916636Y429948D01*
X915314Y426756D01*
X914640Y423368D01*
Y419912D01*
X915314Y416524D01*
X916636Y413332D01*
X918556Y410459D01*
X920999Y408016D01*
X923872Y406096D01*
X927064Y404774D01*
X930452Y404100D01*
X933907D01*
X937296Y404774D01*
X940488Y406096D01*
X943361Y408016D01*
X945804Y410459D01*
X947724Y413332D01*
X949046Y416524D01*
X949720Y419912D01*
Y423368D01*
X949046Y426756D01*
X947724Y429948D01*
X945804Y432821D01*
X943361Y435264D01*
X940488Y437184D01*
X937296Y438506D01*
X933907Y439180D01*
D02*
G37*
G36*
X745947D02*
X742493D01*
X739104Y438506D01*
X735912Y437184D01*
X733039Y435264D01*
X730596Y432821D01*
X728676Y429948D01*
X727354Y426756D01*
X726680Y423368D01*
Y419912D01*
X727354Y416524D01*
X728676Y413332D01*
X730596Y410459D01*
X733039Y408016D01*
X735912Y406096D01*
X739104Y404774D01*
X742493Y404100D01*
X745947D01*
X749336Y404774D01*
X752528Y406096D01*
X755401Y408016D01*
X757844Y410459D01*
X759764Y413332D01*
X761086Y416524D01*
X761760Y419912D01*
Y423368D01*
X761086Y426756D01*
X759764Y429948D01*
X757844Y432821D01*
X755401Y435264D01*
X752528Y437184D01*
X749336Y438506D01*
X745947Y439180D01*
D02*
G37*
G36*
X561797D02*
X558343D01*
X554954Y438506D01*
X551762Y437184D01*
X548889Y435264D01*
X546446Y432821D01*
X544526Y429948D01*
X543204Y426756D01*
X542530Y423368D01*
Y419912D01*
X543204Y416524D01*
X544526Y413332D01*
X546446Y410459D01*
X548889Y408016D01*
X551762Y406096D01*
X554954Y404774D01*
X558343Y404100D01*
X561797D01*
X565186Y404774D01*
X568378Y406096D01*
X571251Y408016D01*
X573694Y410459D01*
X575614Y413332D01*
X576936Y416524D01*
X577610Y419912D01*
Y423368D01*
X576936Y426756D01*
X575614Y429948D01*
X573694Y432821D01*
X571251Y435264D01*
X568378Y437184D01*
X565186Y438506D01*
X561797Y439180D01*
D02*
G37*
G36*
X972544Y419227D02*
X968016D01*
X963575Y418344D01*
X959392Y416611D01*
X955627Y414095D01*
X952425Y410893D01*
X949909Y407128D01*
X948176Y402945D01*
X947293Y398504D01*
Y393976D01*
X948176Y389535D01*
X949909Y385352D01*
X952425Y381587D01*
X955627Y378385D01*
X959392Y375869D01*
X963575Y374136D01*
X968016Y373253D01*
X972544D01*
X976985Y374136D01*
X981168Y375869D01*
X984933Y378385D01*
X988135Y381587D01*
X990651Y385352D01*
X992384Y389535D01*
X993267Y393976D01*
Y398504D01*
X992384Y402945D01*
X990651Y407128D01*
X988135Y410893D01*
X984933Y414095D01*
X981168Y416611D01*
X976985Y418344D01*
X972544Y419227D01*
D02*
G37*
G36*
X784584D02*
X780056D01*
X775615Y418344D01*
X771432Y416611D01*
X767667Y414095D01*
X764465Y410893D01*
X761949Y407128D01*
X760216Y402945D01*
X759333Y398504D01*
Y393976D01*
X760216Y389535D01*
X761949Y385352D01*
X764465Y381587D01*
X767667Y378385D01*
X771432Y375869D01*
X775615Y374136D01*
X780056Y373253D01*
X784584D01*
X789025Y374136D01*
X793208Y375869D01*
X796973Y378385D01*
X800175Y381587D01*
X802691Y385352D01*
X804424Y389535D01*
X805307Y393976D01*
Y398504D01*
X804424Y402945D01*
X802691Y407128D01*
X800175Y410893D01*
X796973Y414095D01*
X793208Y416611D01*
X789025Y418344D01*
X784584Y419227D01*
D02*
G37*
G36*
X600434D02*
X595906D01*
X591465Y418344D01*
X587282Y416611D01*
X583517Y414095D01*
X580315Y410893D01*
X577799Y407128D01*
X576066Y402945D01*
X575183Y398504D01*
Y393976D01*
X576066Y389535D01*
X577799Y385352D01*
X580315Y381587D01*
X583517Y378385D01*
X587282Y375869D01*
X591465Y374136D01*
X595906Y373253D01*
X600434D01*
X604875Y374136D01*
X609058Y375869D01*
X612823Y378385D01*
X616025Y381587D01*
X618541Y385352D01*
X620274Y389535D01*
X621157Y393976D01*
Y398504D01*
X620274Y402945D01*
X618541Y407128D01*
X616025Y410893D01*
X612823Y414095D01*
X609058Y416611D01*
X604875Y418344D01*
X600434Y419227D01*
D02*
G37*
G36*
X934079Y300830D02*
X931111D01*
X928245Y300062D01*
X925675Y298578D01*
X923577Y296480D01*
X922093Y293910D01*
X921325Y291044D01*
Y288076D01*
X922093Y285210D01*
X923577Y282640D01*
X925675Y280542D01*
X928245Y279058D01*
X931111Y278290D01*
X934079D01*
X936945Y279058D01*
X939515Y280542D01*
X941613Y282640D01*
X943097Y285210D01*
X943865Y288076D01*
Y291044D01*
X943097Y293910D01*
X941613Y296480D01*
X939515Y298578D01*
X936945Y300062D01*
X934079Y300830D01*
D02*
G37*
G36*
X748659D02*
X745691D01*
X742825Y300062D01*
X740255Y298578D01*
X738157Y296480D01*
X736673Y293910D01*
X735905Y291044D01*
Y288076D01*
X736673Y285210D01*
X738157Y282640D01*
X740255Y280542D01*
X742825Y279058D01*
X745691Y278290D01*
X748659D01*
X751525Y279058D01*
X754095Y280542D01*
X756193Y282640D01*
X757677Y285210D01*
X758445Y288076D01*
Y291044D01*
X757677Y293910D01*
X756193Y296480D01*
X754095Y298578D01*
X751525Y300062D01*
X748659Y300830D01*
D02*
G37*
G36*
X563239D02*
X560271D01*
X557405Y300062D01*
X554835Y298578D01*
X552737Y296480D01*
X551253Y293910D01*
X550485Y291044D01*
Y288076D01*
X551253Y285210D01*
X552737Y282640D01*
X554835Y280542D01*
X557405Y279058D01*
X560271Y278290D01*
X563239D01*
X566105Y279058D01*
X568675Y280542D01*
X570773Y282640D01*
X572257Y285210D01*
X573025Y288076D01*
Y291044D01*
X572257Y293910D01*
X570773Y296480D01*
X568675Y298578D01*
X566105Y300062D01*
X563239Y300830D01*
D02*
G37*
G36*
X997408Y248680D02*
X993952D01*
X990564Y248006D01*
X987372Y246684D01*
X984499Y244764D01*
X982056Y242321D01*
X980136Y239448D01*
X978814Y236256D01*
X978140Y232868D01*
Y229412D01*
X978814Y226024D01*
X980136Y222832D01*
X982056Y219959D01*
X984499Y217516D01*
X987372Y215596D01*
X990564Y214274D01*
X993952Y213600D01*
X997408D01*
X1000796Y214274D01*
X1003988Y215596D01*
X1006861Y217516D01*
X1009304Y219959D01*
X1011224Y222832D01*
X1012546Y226024D01*
X1013220Y229412D01*
Y232868D01*
X1012546Y236256D01*
X1011224Y239448D01*
X1009304Y242321D01*
X1006861Y244764D01*
X1003988Y246684D01*
X1000796Y248006D01*
X997408Y248680D01*
D02*
G37*
G36*
X809447D02*
X805993D01*
X802604Y248006D01*
X799412Y246684D01*
X796539Y244764D01*
X794096Y242321D01*
X792176Y239448D01*
X790854Y236256D01*
X790180Y232868D01*
Y229412D01*
X790854Y226024D01*
X792176Y222832D01*
X794096Y219959D01*
X796539Y217516D01*
X799412Y215596D01*
X802604Y214274D01*
X805993Y213600D01*
X809447D01*
X812836Y214274D01*
X816028Y215596D01*
X818901Y217516D01*
X821344Y219959D01*
X823264Y222832D01*
X824586Y226024D01*
X825260Y229412D01*
Y232868D01*
X824586Y236256D01*
X823264Y239448D01*
X821344Y242321D01*
X818901Y244764D01*
X816028Y246684D01*
X812836Y248006D01*
X809447Y248680D01*
D02*
G37*
G36*
X625298D02*
X621842D01*
X618454Y248006D01*
X615262Y246684D01*
X612389Y244764D01*
X609946Y242321D01*
X608026Y239448D01*
X606704Y236256D01*
X606030Y232868D01*
Y229412D01*
X606704Y226024D01*
X608026Y222832D01*
X609946Y219959D01*
X612389Y217516D01*
X615262Y215596D01*
X618454Y214274D01*
X621842Y213600D01*
X625298D01*
X628686Y214274D01*
X631878Y215596D01*
X634751Y217516D01*
X637194Y219959D01*
X639114Y222832D01*
X640436Y226024D01*
X641110Y229412D01*
Y232868D01*
X640436Y236256D01*
X639114Y239448D01*
X637194Y242321D01*
X634751Y244764D01*
X631878Y246684D01*
X628686Y248006D01*
X625298Y248680D01*
D02*
G37*
G36*
X933907Y223280D02*
X930452D01*
X927064Y222606D01*
X923872Y221284D01*
X920999Y219364D01*
X918556Y216921D01*
X916636Y214048D01*
X915314Y210856D01*
X914640Y207467D01*
Y204013D01*
X915314Y200624D01*
X916636Y197432D01*
X918556Y194559D01*
X920999Y192116D01*
X923872Y190196D01*
X927064Y188874D01*
X930452Y188200D01*
X933907D01*
X937296Y188874D01*
X940488Y190196D01*
X943361Y192116D01*
X945804Y194559D01*
X947724Y197432D01*
X949046Y200624D01*
X949720Y204013D01*
Y207467D01*
X949046Y210856D01*
X947724Y214048D01*
X945804Y216921D01*
X943361Y219364D01*
X940488Y221284D01*
X937296Y222606D01*
X933907Y223280D01*
D02*
G37*
G36*
X745947D02*
X742493D01*
X739104Y222606D01*
X735912Y221284D01*
X733039Y219364D01*
X730596Y216921D01*
X728676Y214048D01*
X727354Y210856D01*
X726680Y207467D01*
Y204013D01*
X727354Y200624D01*
X728676Y197432D01*
X730596Y194559D01*
X733039Y192116D01*
X735912Y190196D01*
X739104Y188874D01*
X742493Y188200D01*
X745947D01*
X749336Y188874D01*
X752528Y190196D01*
X755401Y192116D01*
X757844Y194559D01*
X759764Y197432D01*
X761086Y200624D01*
X761760Y204013D01*
Y207467D01*
X761086Y210856D01*
X759764Y214048D01*
X757844Y216921D01*
X755401Y219364D01*
X752528Y221284D01*
X749336Y222606D01*
X745947Y223280D01*
D02*
G37*
G36*
X561797D02*
X558343D01*
X554954Y222606D01*
X551762Y221284D01*
X548889Y219364D01*
X546446Y216921D01*
X544526Y214048D01*
X543204Y210856D01*
X542530Y207467D01*
Y204013D01*
X543204Y200624D01*
X544526Y197432D01*
X546446Y194559D01*
X548889Y192116D01*
X551762Y190196D01*
X554954Y188874D01*
X558343Y188200D01*
X561797D01*
X565186Y188874D01*
X568378Y190196D01*
X571251Y192116D01*
X573694Y194559D01*
X575614Y197432D01*
X576936Y200624D01*
X577610Y204013D01*
Y207467D01*
X576936Y210856D01*
X575614Y214048D01*
X573694Y216921D01*
X571251Y219364D01*
X568378Y221284D01*
X565186Y222606D01*
X561797Y223280D01*
D02*
G37*
G36*
X972544Y203327D02*
X968016D01*
X963575Y202444D01*
X959392Y200711D01*
X955627Y198195D01*
X952425Y194993D01*
X949909Y191228D01*
X948176Y187045D01*
X947293Y182604D01*
Y178076D01*
X948176Y173635D01*
X949909Y169452D01*
X952425Y165687D01*
X955627Y162485D01*
X959392Y159969D01*
X963575Y158236D01*
X968016Y157353D01*
X972544D01*
X976985Y158236D01*
X981168Y159969D01*
X984933Y162485D01*
X988135Y165687D01*
X990651Y169452D01*
X992384Y173635D01*
X993267Y178076D01*
Y182604D01*
X992384Y187045D01*
X990651Y191228D01*
X988135Y194993D01*
X984933Y198195D01*
X981168Y200711D01*
X976985Y202444D01*
X972544Y203327D01*
D02*
G37*
G36*
X784584D02*
X780056D01*
X775615Y202444D01*
X771432Y200711D01*
X767667Y198195D01*
X764465Y194993D01*
X761949Y191228D01*
X760216Y187045D01*
X759333Y182604D01*
Y178076D01*
X760216Y173635D01*
X761949Y169452D01*
X764465Y165687D01*
X767667Y162485D01*
X771432Y159969D01*
X775615Y158236D01*
X780056Y157353D01*
X784584D01*
X789025Y158236D01*
X793208Y159969D01*
X796973Y162485D01*
X800175Y165687D01*
X802691Y169452D01*
X804424Y173635D01*
X805307Y178076D01*
Y182604D01*
X804424Y187045D01*
X802691Y191228D01*
X800175Y194993D01*
X796973Y198195D01*
X793208Y200711D01*
X789025Y202444D01*
X784584Y203327D01*
D02*
G37*
G36*
X600434D02*
X595906D01*
X591465Y202444D01*
X587282Y200711D01*
X583517Y198195D01*
X580315Y194993D01*
X577799Y191228D01*
X576066Y187045D01*
X575183Y182604D01*
Y178076D01*
X576066Y173635D01*
X577799Y169452D01*
X580315Y165687D01*
X583517Y162485D01*
X587282Y159969D01*
X591465Y158236D01*
X595906Y157353D01*
X600434D01*
X604875Y158236D01*
X609058Y159969D01*
X612823Y162485D01*
X616025Y165687D01*
X618541Y169452D01*
X620274Y173635D01*
X621157Y178076D01*
Y182604D01*
X620274Y187045D01*
X618541Y191228D01*
X616025Y194993D01*
X612823Y198195D01*
X609058Y200711D01*
X604875Y202444D01*
X600434Y203327D01*
D02*
G37*
G36*
X934079Y84930D02*
X931111D01*
X928245Y84162D01*
X925675Y82678D01*
X923577Y80580D01*
X922093Y78010D01*
X921325Y75144D01*
Y72176D01*
X922093Y69310D01*
X923577Y66740D01*
X925675Y64642D01*
X928245Y63158D01*
X931111Y62390D01*
X934079D01*
X936945Y63158D01*
X939515Y64642D01*
X941613Y66740D01*
X943097Y69310D01*
X943865Y72176D01*
Y75144D01*
X943097Y78010D01*
X941613Y80580D01*
X939515Y82678D01*
X936945Y84162D01*
X934079Y84930D01*
D02*
G37*
G36*
X748659D02*
X745691D01*
X742825Y84162D01*
X740255Y82678D01*
X738157Y80580D01*
X736673Y78010D01*
X735905Y75144D01*
Y72176D01*
X736673Y69310D01*
X738157Y66740D01*
X740255Y64642D01*
X742825Y63158D01*
X745691Y62390D01*
X748659D01*
X751525Y63158D01*
X754095Y64642D01*
X756193Y66740D01*
X757677Y69310D01*
X758445Y72176D01*
Y75144D01*
X757677Y78010D01*
X756193Y80580D01*
X754095Y82678D01*
X751525Y84162D01*
X748659Y84930D01*
D02*
G37*
G36*
X563239D02*
X560271D01*
X557405Y84162D01*
X554835Y82678D01*
X552737Y80580D01*
X551253Y78010D01*
X550485Y75144D01*
Y72176D01*
X551253Y69310D01*
X552737Y66740D01*
X554835Y64642D01*
X557405Y63158D01*
X560271Y62390D01*
X563239D01*
X566105Y63158D01*
X568675Y64642D01*
X570773Y66740D01*
X572257Y69310D01*
X573025Y72176D01*
Y75144D01*
X572257Y78010D01*
X570773Y80580D01*
X568675Y82678D01*
X566105Y84162D01*
X563239Y84930D01*
D02*
G37*
G36*
X1019235D02*
X996695D01*
Y70081D01*
X985392Y58779D01*
X845118D01*
X833815Y70081D01*
Y84930D01*
X811275D01*
Y70081D01*
X799972Y58779D01*
X659698D01*
X648395Y70081D01*
Y84930D01*
X625855D01*
Y62390D01*
X640704D01*
X653599Y49494D01*
X655364Y48316D01*
X657445Y47902D01*
X802225D01*
X804306Y48316D01*
X806071Y49494D01*
X818966Y62390D01*
X826124D01*
X839019Y49494D01*
X840784Y48316D01*
X842865Y47902D01*
X987645D01*
X989726Y48316D01*
X991491Y49494D01*
X1004386Y62390D01*
X1019235D01*
Y84930D01*
D02*
G37*
G36*
X1095847Y92710D02*
X1091093D01*
X1086432Y91783D01*
X1082040Y89964D01*
X1078088Y87323D01*
X1074727Y83962D01*
X1072086Y80010D01*
X1070267Y75619D01*
X1069340Y70957D01*
Y66203D01*
X1070267Y61542D01*
X1072086Y57150D01*
X1074727Y53198D01*
X1078088Y49837D01*
X1082040Y47196D01*
X1086432Y45377D01*
X1091093Y44450D01*
X1095847D01*
X1100508Y45377D01*
X1104900Y47196D01*
X1108852Y49837D01*
X1112213Y53198D01*
X1114854Y57150D01*
X1116673Y61542D01*
X1117600Y66203D01*
Y70957D01*
X1116673Y75619D01*
X1114854Y80010D01*
X1112213Y83962D01*
X1108852Y87323D01*
X1104900Y89964D01*
X1100508Y91783D01*
X1095847Y92710D01*
D02*
G37*
G36*
X477357D02*
X472603D01*
X467942Y91783D01*
X463550Y89964D01*
X459598Y87323D01*
X456237Y83962D01*
X453596Y80010D01*
X451777Y75619D01*
X450850Y70957D01*
Y66203D01*
X451777Y61542D01*
X453596Y57150D01*
X456237Y53198D01*
X459598Y49837D01*
X463550Y47196D01*
X467942Y45377D01*
X472603Y44450D01*
X477357D01*
X482019Y45377D01*
X486410Y47196D01*
X490362Y49837D01*
X493723Y53198D01*
X496364Y57150D01*
X498183Y61542D01*
X499110Y66203D01*
Y70957D01*
X498183Y75619D01*
X496364Y80010D01*
X493723Y83962D01*
X490362Y87323D01*
X486410Y89964D01*
X482019Y91783D01*
X477357Y92710D01*
D02*
G37*
%LPD*%
G36*
X744184Y817844D02*
X745949Y816665D01*
X748030Y816252D01*
X749069D01*
X750267Y813857D01*
X749303Y811530D01*
X761997D01*
X761033Y813857D01*
X762231Y816252D01*
X836242D01*
X837443Y815050D01*
X839207Y813872D01*
X841289Y813457D01*
X986790D01*
Y811630D01*
X987396Y809369D01*
X988566Y807341D01*
X990221Y805686D01*
X992249Y804516D01*
X994510Y803910D01*
X996850D01*
X999111Y804516D01*
X1001139Y805686D01*
X1001672Y806219D01*
X1004212Y805167D01*
Y793763D01*
X1001672Y792711D01*
X1001139Y793244D01*
X999111Y794414D01*
X996850Y795020D01*
X994510D01*
X994487Y795014D01*
X988096Y801406D01*
X986331Y802585D01*
X984250Y802999D01*
X760845D01*
X759909Y805538D01*
X761033Y806663D01*
X761997Y808990D01*
X749303D01*
X750191Y806846D01*
X750222Y806554D01*
X749227Y804111D01*
X748089Y803922D01*
X722893Y829118D01*
X723530Y831497D01*
Y834743D01*
X723470Y834967D01*
X725748Y836281D01*
X744184Y817844D01*
D02*
G37*
G36*
X615655Y760371D02*
X613084Y759683D01*
X610216Y758027D01*
X607873Y755684D01*
X606217Y752816D01*
X605360Y749616D01*
X602863Y749719D01*
X602296Y751835D01*
X600974Y754125D01*
X599105Y755994D01*
X596815Y757316D01*
X594262Y758000D01*
X594210D01*
Y747960D01*
Y737920D01*
X594262D01*
X596815Y738604D01*
X599105Y739926D01*
X600974Y741795D01*
X602296Y744085D01*
X602863Y746201D01*
X605360Y746304D01*
X606217Y743104D01*
X607873Y740236D01*
X610216Y737894D01*
X612501Y736574D01*
Y720090D01*
X573378D01*
Y735380D01*
X580520D01*
Y745707D01*
X583060Y746041D01*
X583584Y744085D01*
X584906Y741795D01*
X586775Y739926D01*
X589065Y738604D01*
X591618Y737920D01*
X591670D01*
Y747960D01*
Y758000D01*
X591618D01*
X589065Y757316D01*
X586775Y755994D01*
X584906Y754125D01*
X583584Y751835D01*
X583060Y749879D01*
X580520Y750213D01*
Y760540D01*
X580520D01*
X580927Y762912D01*
X615321D01*
X615655Y760371D01*
D02*
G37*
G36*
X689574Y723864D02*
X691339Y722685D01*
X691618Y722630D01*
X691367Y720090D01*
X623378D01*
Y736574D01*
X625664Y737894D01*
X628007Y740236D01*
X629663Y743104D01*
X630520Y746304D01*
Y749616D01*
X629663Y752816D01*
X628007Y755684D01*
X625664Y758027D01*
X622796Y759683D01*
X620225Y760371D01*
X620559Y762912D01*
X650527D01*
X689574Y723864D01*
D02*
G37*
D26*
X746760Y797560D02*
X984250D01*
X711200Y833120D02*
X746760Y797560D01*
X984250D02*
X995680Y786130D01*
X748030Y821690D02*
X838494D01*
X711154Y858566D02*
X748030Y821690D01*
X838494D02*
X841289Y818896D01*
X989584D01*
X995680Y812800D01*
X842865Y269240D02*
X987645D01*
X1007965Y289560D01*
X822545D02*
X842865Y269240D01*
X657445D02*
X802225D01*
X822545Y289560D01*
X637125D02*
X657445Y269240D01*
X1007965Y289560D02*
X1057910Y339505D01*
Y853440D01*
X1047750Y863600D02*
X1057910Y853440D01*
X986375Y483870D02*
X1006695Y504190D01*
X841595Y483870D02*
X986375D01*
X821275Y504190D02*
X841595Y483870D01*
X821275Y521555D02*
X864870Y565150D01*
X821275Y504190D02*
Y521555D01*
X800955Y483870D02*
X821275Y504190D01*
X656175Y483870D02*
X800955D01*
X635855Y504190D02*
X656175Y483870D01*
X617940Y717700D02*
Y747960D01*
X567940Y717700D02*
Y747960D01*
X539850Y864870D02*
X567940Y892960D01*
X487680Y814925D02*
Y835660D01*
X516890Y864870D02*
X539850D01*
X487680Y835660D02*
X516890Y864870D01*
X487680Y739555D02*
X516475Y768350D01*
X652780D01*
X693420Y727710D01*
X998220Y889000D02*
X1009650Y877570D01*
X1017270Y914400D02*
X1031240Y900430D01*
X1009650Y748030D02*
Y877570D01*
X1031240Y726440D02*
Y900430D01*
X1009650Y748030D02*
X1009658Y748023D01*
Y745498D02*
Y748023D01*
X693420Y727710D02*
X786130D01*
X617940Y717700D02*
X626980Y708660D01*
X972820D02*
X1009658Y745498D01*
X626980Y708660D02*
X972820D01*
X567940Y717700D02*
X594760Y690880D01*
X995680D01*
X1031240Y726440D01*
X657445Y53340D02*
X802225D01*
X822545Y73660D01*
X842865Y53340D02*
X987645D01*
X1007965Y73660D01*
X822545D02*
X842865Y53340D01*
X637125Y73660D02*
X657445Y53340D01*
D27*
X487680Y814925D02*
D03*
X932595Y73660D02*
D03*
X747175D02*
D03*
X561755D02*
D03*
X932595Y289560D02*
D03*
X561755D02*
D03*
X932595Y504190D02*
D03*
X745905D02*
D03*
X560485D02*
D03*
X747175Y289560D02*
D03*
D28*
X487680Y739555D02*
D03*
D29*
X711200Y858520D02*
D03*
Y833120D02*
D03*
Y807720D02*
D03*
D30*
Y782320D02*
D03*
D31*
X822545Y289560D02*
D03*
X637125D02*
D03*
X1007965D02*
D03*
Y504190D02*
D03*
X821275D02*
D03*
X635855D02*
D03*
X637125Y73660D02*
D03*
X822545D02*
D03*
X1007965D02*
D03*
D32*
X592940Y747960D02*
D03*
X617940D02*
D03*
X567940Y892960D02*
D03*
X617940D02*
D03*
D33*
X649940Y822960D02*
D03*
X535940D02*
D03*
D34*
X474980Y895350D02*
D03*
X1098550Y900430D02*
D03*
X1093470Y68580D02*
D03*
X474980D02*
D03*
D35*
X567940Y747960D02*
D03*
D36*
X970280Y610870D02*
D03*
Y180340D02*
D03*
X782320D02*
D03*
X598170D02*
D03*
X970280Y396240D02*
D03*
X782320D02*
D03*
X598170D02*
D03*
X783590Y610870D02*
D03*
X598170D02*
D03*
D37*
X623570Y661670D02*
D03*
X560070Y636270D02*
D03*
X745490D02*
D03*
X808990Y661670D02*
D03*
X995680D02*
D03*
X932180Y636270D02*
D03*
X560070Y421640D02*
D03*
X623570Y447040D02*
D03*
X807720D02*
D03*
X744220Y421640D02*
D03*
X932180D02*
D03*
X995680Y447040D02*
D03*
X623570Y231140D02*
D03*
X560070Y205740D02*
D03*
X744220D02*
D03*
X807720Y231140D02*
D03*
X995680D02*
D03*
X932180Y205740D02*
D03*
D38*
X755650Y810260D02*
D03*
X995680Y812800D02*
D03*
X1047750Y863600D02*
D03*
X995680Y786130D02*
D03*
X844550Y828040D02*
D03*
X864870Y565150D02*
D03*
X998220Y889000D02*
D03*
X1017270Y914400D02*
D03*
X786130Y727710D02*
D03*
M02*
