M48
;Layer_Color=9474304
;FILE_FORMAT=4:4
METRIC,LZ
;TYPE=PLATED
T01F00S00C0.3810
T02F00S00C0.7300
T03F00S00C0.8000
T04F00S00C1.0000
T05F00S00C1.1000
T06F00S00C3.1600
T07F00S00C3.2000
;TYPE=NON_PLATED
T08F00S00C3.0000
T09F00S00C4.0894
%
T01
X0050292Y0055118
X005461Y0055499
X0050927Y0060452
X0047625Y005842
X0063627Y0060071
X00635Y0055753
X0058293Y0066802
X0059944Y00762
X0069088Y0067056
X0040513Y0072771
X0037846Y00635
X0033909Y0064262
X0034163Y0060452
X0033147Y0079375
X0040894
T02
X00561755Y0007366
X00637125
X00747175
Y0028956
X00637125
X00561755
X00822545
X00932595
X01007965
Y0007366
X00932595
X00822545
X00821275Y0050419
X00932595
X01007965
X00745905
X00635855
X00560485
X0048768Y00739555
Y00814925
T03
X0043434Y005461
Y005715
Y005969
Y006223
Y006477
Y006731
Y006985
Y007239
Y007493
Y007747
X0028194
Y007493
Y007239
Y006985
Y006731
Y006477
Y006223
Y005969
Y005715
Y005461
Y008001
Y008255
X0043434
Y008001
T04
X0056555Y0072009
X0059055
X0061555
Y0086509
X0056555
T05
X0071247Y0074549
Y0077089
Y0079629
Y0082169
T06
X0053355Y0079509
X0064755
T07
X0022987Y0005842
X011049Y0005207
X0022733Y0084328
X011049
T08
X0056007Y0020574
X0062357Y0023114
X0074422Y0020574
X0080772Y0023114
X0093218Y0020574
X0099568Y0023114
Y0044704
X0093218Y0042164
X0080772Y0044704
X0080899Y0066167
X0093218Y0063627
X0099568Y0066167
X0074549Y0063627
X0062357Y0066167
X0056007Y0063627
Y0042164
X0062357Y0044704
X0074422Y0042164
T09
X0059817Y0018034
X0078232
Y0039624
X0059817
X0097028
Y0018034
Y0061087
X0078359
X0059817
M30
