G04*
G04 #@! TF.GenerationSoftware,Altium Limited,Altium Designer,25.8.1 (18)*
G04*
G04 Layer_Color=32896*
%FSLAX44Y44*%
%MOMM*%
G71*
G04*
G04 #@! TF.SameCoordinates,ADD3D31B-8851-4C81-8C4E-7CFF1D2DEE2F*
G04*
G04*
G04 #@! TF.FilePolarity,Positive*
G04*
G01*
G75*
%ADD10C,0.2000*%
%ADD13C,0.1270*%
%ADD14C,0.2540*%
D10*
X678820Y661970D02*
G03*
X678820Y661970I-1000J0D01*
G01*
X864240D02*
G03*
X864240Y661970I-1000J0D01*
G01*
X1050930D02*
G03*
X1050930Y661970I-1000J0D01*
G01*
X678820Y447340D02*
G03*
X678820Y447340I-1000J0D01*
G01*
X862970D02*
G03*
X862970Y447340I-1000J0D01*
G01*
X1050930D02*
G03*
X1050930Y447340I-1000J0D01*
G01*
X678820Y231440D02*
G03*
X678820Y231440I-1000J0D01*
G01*
X862970D02*
G03*
X862970Y231440I-1000J0D01*
G01*
X1050930D02*
G03*
X1050930Y231440I-1000J0D01*
G01*
X488680Y727240D02*
G03*
X488680Y727240I-1000J0D01*
G01*
X1021280Y73660D02*
G03*
X1021280Y73660I-1000J0D01*
G01*
X835860D02*
G03*
X835860Y73660I-1000J0D01*
G01*
X650440D02*
G03*
X650440Y73660I-1000J0D01*
G01*
X1021280Y289560D02*
G03*
X1021280Y289560I-1000J0D01*
G01*
X650440D02*
G03*
X650440Y289560I-1000J0D01*
G01*
X1021280Y504190D02*
G03*
X1021280Y504190I-1000J0D01*
G01*
X834590D02*
G03*
X834590Y504190I-1000J0D01*
G01*
X649170D02*
G03*
X649170Y504190I-1000J0D01*
G01*
X835860Y289560D02*
G03*
X835860Y289560I-1000J0D01*
G01*
D13*
X554070Y678420D02*
G03*
X537320Y661670I0J-16750D01*
G01*
X570070Y619520D02*
G03*
X575070Y624520I0J5000D01*
G01*
X588970Y638420D02*
G03*
X575070Y624520I0J-13900D01*
G01*
X641320Y638420D02*
G03*
X646320Y643420I0J5000D01*
G01*
X826740Y638420D02*
G03*
X831740Y643420I0J5000D01*
G01*
X774390Y638420D02*
G03*
X760490Y624520I0J-13900D01*
G01*
X755490Y619520D02*
G03*
X760490Y624520I0J5000D01*
G01*
X739490Y678420D02*
G03*
X722740Y661670I0J-16750D01*
G01*
X926180Y678420D02*
G03*
X909430Y661670I0J-16750D01*
G01*
X942180Y619520D02*
G03*
X947180Y624520I0J5000D01*
G01*
X961080Y638420D02*
G03*
X947180Y624520I0J-13900D01*
G01*
X1013430Y638420D02*
G03*
X1018430Y643420I0J5000D01*
G01*
X641320Y423790D02*
G03*
X646320Y428790I0J5000D01*
G01*
X588970Y423790D02*
G03*
X575070Y409890I0J-13900D01*
G01*
X570070Y404890D02*
G03*
X575070Y409890I0J5000D01*
G01*
X554070Y463790D02*
G03*
X537320Y447040I0J-16750D01*
G01*
X738220Y463790D02*
G03*
X721470Y447040I0J-16750D01*
G01*
X754220Y404890D02*
G03*
X759220Y409890I0J5000D01*
G01*
X773120Y423790D02*
G03*
X759220Y409890I0J-13900D01*
G01*
X825470Y423790D02*
G03*
X830470Y428790I0J5000D01*
G01*
X1013430Y423790D02*
G03*
X1018430Y428790I0J5000D01*
G01*
X961080Y423790D02*
G03*
X947180Y409890I0J-13900D01*
G01*
X942180Y404890D02*
G03*
X947180Y409890I0J5000D01*
G01*
X926180Y463790D02*
G03*
X909430Y447040I0J-16750D01*
G01*
X554070Y247890D02*
G03*
X537320Y231140I0J-16750D01*
G01*
X570070Y188990D02*
G03*
X575070Y193990I0J5000D01*
G01*
X588970Y207890D02*
G03*
X575070Y193990I0J-13900D01*
G01*
X641320Y207890D02*
G03*
X646320Y212890I0J5000D01*
G01*
X825470Y207890D02*
G03*
X830470Y212890I0J5000D01*
G01*
X773120Y207890D02*
G03*
X759220Y193990I0J-13900D01*
G01*
X754220Y188990D02*
G03*
X759220Y193990I0J5000D01*
G01*
X738220Y247890D02*
G03*
X721470Y231140I0J-16750D01*
G01*
X926180Y247890D02*
G03*
X909430Y231140I0J-16750D01*
G01*
X942180Y188990D02*
G03*
X947180Y193990I0J5000D01*
G01*
X961080Y207890D02*
G03*
X947180Y193990I0J-13900D01*
G01*
X1013430Y207890D02*
G03*
X1018430Y212890I0J5000D01*
G01*
X554070Y678420D02*
X613570D01*
X537320Y651970D02*
Y661670D01*
X646320Y643420D02*
Y645970D01*
X588970Y638420D02*
X641320D01*
X774390D02*
X826740D01*
X831740Y643420D02*
Y645970D01*
X722740Y651970D02*
Y661670D01*
X739490Y678420D02*
X798990D01*
X926180D02*
X985680D01*
X909430Y651970D02*
Y661670D01*
X1018430Y643420D02*
Y645970D01*
X961080Y638420D02*
X1013430D01*
X588970Y423790D02*
X641320D01*
X646320Y428790D02*
Y431340D01*
X537320Y437340D02*
Y447040D01*
X554070Y463790D02*
X613570D01*
X738220D02*
X797720D01*
X721470Y437340D02*
Y447040D01*
X830470Y428790D02*
Y431340D01*
X773120Y423790D02*
X825470D01*
X961080D02*
X1013430D01*
X1018430Y428790D02*
Y431340D01*
X909430Y437340D02*
Y447040D01*
X926180Y463790D02*
X985680D01*
X554070Y247890D02*
X613570D01*
X537320Y221440D02*
Y231140D01*
X646320Y212890D02*
Y215440D01*
X588970Y207890D02*
X641320D01*
X773120D02*
X825470D01*
X830470Y212890D02*
Y215440D01*
X721470Y221440D02*
Y231140D01*
X738220Y247890D02*
X797720D01*
X926180D02*
X985680D01*
X909430Y221440D02*
Y231140D01*
X1018430Y212890D02*
Y215440D01*
X961080Y207890D02*
X1013430D01*
X496280Y758215D02*
Y796265D01*
X479080D02*
X496280D01*
X479080Y758215D02*
Y796265D01*
Y758215D02*
X496280D01*
X951255Y82260D02*
X989305D01*
X951255Y65060D02*
Y82260D01*
Y65060D02*
X989305D01*
Y82260D01*
X765835D02*
X803885D01*
X765835Y65060D02*
Y82260D01*
Y65060D02*
X803885D01*
Y82260D01*
X580415D02*
X618465D01*
X580415Y65060D02*
Y82260D01*
Y65060D02*
X618465D01*
Y82260D01*
X951255Y298160D02*
X989305D01*
X951255Y280960D02*
Y298160D01*
Y280960D02*
X989305D01*
Y298160D01*
X580415D02*
X618465D01*
X580415Y280960D02*
Y298160D01*
Y280960D02*
X618465D01*
Y298160D01*
X951255Y512790D02*
X989305D01*
X951255Y495590D02*
Y512790D01*
Y495590D02*
X989305D01*
Y512790D01*
X802615Y495590D02*
Y512790D01*
X764565Y495590D02*
X802615D01*
X764565D02*
Y512790D01*
X802615D01*
X579145D02*
X617195D01*
X579145Y495590D02*
Y512790D01*
Y495590D02*
X617195D01*
Y512790D01*
X765835Y298160D02*
X803885D01*
X765835Y280960D02*
Y298160D01*
Y280960D02*
X803885D01*
Y298160D01*
D14*
X516890Y846831D02*
Y831596D01*
X509272D01*
X506733Y834135D01*
Y844292D01*
X509272Y846831D01*
X516890D01*
X501655Y831596D02*
X496577D01*
X499116D01*
Y846831D01*
X501655Y844292D01*
X488959D02*
X486420Y846831D01*
X481342D01*
X478802Y844292D01*
Y834135D01*
X481342Y831596D01*
X486420D01*
X488959Y834135D01*
Y844292D01*
X898909Y271014D02*
X901449Y273553D01*
X906527D01*
X909066Y271014D01*
Y268475D01*
X906527Y265935D01*
X901449D01*
X898909Y263396D01*
Y260857D01*
X901449Y258318D01*
X906527D01*
X909066Y260857D01*
X893831D02*
X891292Y258318D01*
X886213D01*
X883674Y260857D01*
Y271014D01*
X886213Y273553D01*
X891292D01*
X893831Y271014D01*
Y268475D01*
X891292Y265935D01*
X883674D01*
X710949Y271014D02*
X713488Y273553D01*
X718567D01*
X721106Y271014D01*
Y268475D01*
X718567Y265935D01*
X713488D01*
X710949Y263396D01*
Y260857D01*
X713488Y258318D01*
X718567D01*
X721106Y260857D01*
X705871Y271014D02*
X703332Y273553D01*
X698253D01*
X695714Y271014D01*
Y268475D01*
X698253Y265935D01*
X695714Y263396D01*
Y260857D01*
X698253Y258318D01*
X703332D01*
X705871Y260857D01*
Y263396D01*
X703332Y265935D01*
X705871Y268475D01*
Y271014D01*
X703332Y265935D02*
X698253D01*
X526799Y271014D02*
X529338Y273553D01*
X534417D01*
X536956Y271014D01*
Y268475D01*
X534417Y265935D01*
X529338D01*
X526799Y263396D01*
Y260857D01*
X529338Y258318D01*
X534417D01*
X536956Y260857D01*
X521721Y273553D02*
X511564D01*
Y271014D01*
X521721Y260857D01*
Y258318D01*
X898909Y486914D02*
X901449Y489453D01*
X906527D01*
X909066Y486914D01*
Y484375D01*
X906527Y481836D01*
X901449D01*
X898909Y479296D01*
Y476757D01*
X901449Y474218D01*
X906527D01*
X909066Y476757D01*
X883674Y489453D02*
X888753Y486914D01*
X893831Y481836D01*
Y476757D01*
X891292Y474218D01*
X886213D01*
X883674Y476757D01*
Y479296D01*
X886213Y481836D01*
X893831D01*
X710949Y486914D02*
X713488Y489453D01*
X718567D01*
X721106Y486914D01*
Y484375D01*
X718567Y481836D01*
X713488D01*
X710949Y479296D01*
Y476757D01*
X713488Y474218D01*
X718567D01*
X721106Y476757D01*
X695714Y489453D02*
X705871D01*
Y481836D01*
X700793Y484375D01*
X698253D01*
X695714Y481836D01*
Y476757D01*
X698253Y474218D01*
X703332D01*
X705871Y476757D01*
X526799Y486914D02*
X529338Y489453D01*
X534417D01*
X536956Y486914D01*
Y484375D01*
X534417Y481836D01*
X529338D01*
X526799Y479296D01*
Y476757D01*
X529338Y474218D01*
X534417D01*
X536956Y476757D01*
X514103Y474218D02*
Y489453D01*
X521721Y481836D01*
X511564D01*
X898909Y701544D02*
X901449Y704083D01*
X906527D01*
X909066Y701544D01*
Y699005D01*
X906527Y696466D01*
X901449D01*
X898909Y693926D01*
Y691387D01*
X901449Y688848D01*
X906527D01*
X909066Y691387D01*
X893831Y701544D02*
X891292Y704083D01*
X886213D01*
X883674Y701544D01*
Y699005D01*
X886213Y696466D01*
X888753D01*
X886213D01*
X883674Y693926D01*
Y691387D01*
X886213Y688848D01*
X891292D01*
X893831Y691387D01*
X712219Y701544D02*
X714759Y704083D01*
X719837D01*
X722376Y701544D01*
Y699005D01*
X719837Y696466D01*
X714759D01*
X712219Y693926D01*
Y691387D01*
X714759Y688848D01*
X719837D01*
X722376Y691387D01*
X696984Y688848D02*
X707141D01*
X696984Y699005D01*
Y701544D01*
X699523Y704083D01*
X704602D01*
X707141Y701544D01*
X688340Y751838D02*
X690879Y754378D01*
X695957D01*
X698497Y751838D01*
Y749299D01*
X695957Y746760D01*
X690879D01*
X688340Y744221D01*
Y741682D01*
X690879Y739143D01*
X695957D01*
X698497Y741682D01*
X683262Y739143D02*
X678183D01*
X680722D01*
Y754378D01*
X683262Y751838D01*
X909316Y81278D02*
Y66042D01*
X901698D01*
X899159Y68582D01*
Y78738D01*
X901698Y81278D01*
X909316D01*
X894081Y68582D02*
X891542Y66042D01*
X886463D01*
X883924Y68582D01*
Y78738D01*
X886463Y81278D01*
X891542D01*
X894081Y78738D01*
Y76199D01*
X891542Y73660D01*
X883924D01*
X728976Y80007D02*
Y64773D01*
X721358D01*
X718819Y67312D01*
Y77468D01*
X721358Y80007D01*
X728976D01*
X713741Y77468D02*
X711202Y80007D01*
X706123D01*
X703584Y77468D01*
Y74929D01*
X706123Y72390D01*
X703584Y69851D01*
Y67312D01*
X706123Y64773D01*
X711202D01*
X713741Y67312D01*
Y69851D01*
X711202Y72390D01*
X713741Y74929D01*
Y77468D01*
X711202Y72390D02*
X706123D01*
X543556Y81278D02*
Y66042D01*
X535938D01*
X533399Y68582D01*
Y78738D01*
X535938Y81278D01*
X543556D01*
X528321D02*
X518164D01*
Y78738D01*
X528321Y68582D01*
Y66042D01*
X910586Y297178D02*
Y281943D01*
X902968D01*
X900429Y284482D01*
Y294638D01*
X902968Y297178D01*
X910586D01*
X885194D02*
X890273Y294638D01*
X895351Y289560D01*
Y284482D01*
X892812Y281943D01*
X887733D01*
X885194Y284482D01*
Y287021D01*
X887733Y289560D01*
X895351D01*
X546096Y297178D02*
Y281943D01*
X538478D01*
X535939Y284482D01*
Y294638D01*
X538478Y297178D01*
X546096D01*
X523243Y281943D02*
Y297178D01*
X530861Y289560D01*
X520704D01*
X914396Y511808D02*
Y496572D01*
X906778D01*
X904239Y499112D01*
Y509268D01*
X906778Y511808D01*
X914396D01*
X899161Y509268D02*
X896622Y511808D01*
X891543D01*
X889004Y509268D01*
Y506729D01*
X891543Y504190D01*
X894082D01*
X891543D01*
X889004Y501651D01*
Y499112D01*
X891543Y496572D01*
X896622D01*
X899161Y499112D01*
X730246Y513078D02*
Y497842D01*
X722628D01*
X720089Y500382D01*
Y510538D01*
X722628Y513078D01*
X730246D01*
X704854Y497842D02*
X715011D01*
X704854Y507999D01*
Y510538D01*
X707393Y513078D01*
X712472D01*
X715011Y510538D01*
X544827Y511808D02*
Y496572D01*
X537209D01*
X534670Y499112D01*
Y509268D01*
X537209Y511808D01*
X544827D01*
X529592Y496572D02*
X524513D01*
X527052D01*
Y511808D01*
X529592Y509268D01*
X730246Y297178D02*
Y281943D01*
X722628D01*
X720089Y284482D01*
Y294638D01*
X722628Y297178D01*
X730246D01*
X704854D02*
X715011D01*
Y289560D01*
X709932Y292099D01*
X707393D01*
X704854Y289560D01*
Y284482D01*
X707393Y281943D01*
X712472D01*
X715011Y284482D01*
M02*
