M48
;Layer_Color=9474304
;FILE_FORMAT=2:5
INCH,LZ
;TYPE=PLATED
T01F00S00C0.01500
T02F00S00C0.02874
T03F00S00C0.03150
T04F00S00C0.03937
T05F00S00C0.04331
T06F00S00C0.12441
T07F00S00C0.12598
;TYPE=NON_PLATED
T08F00S00C0.11811
T09F00S00C0.16100
%
T01
X0198Y0217
X0215Y02185
X02005Y0238
X01875Y023
X02505Y02365
X025Y02195
X02295Y0263
X0236Y03
X0272Y0264
X01595Y02865
X0149Y025
X01335Y0253
X01345Y0238
X01305Y03125
X0161
T02
X0221163Y0029
X0250837
X0294163
Y0114
X0250837
X0221163
X0323837
X0367163
X0396837
Y0029
X0367163
X0323837
X0323337Y01985
X0367163
X0396837
X0293663
X0250337
X0220663
X0192Y0291163
Y0320837
T03
X0171Y0215
Y0225
Y0235
Y0245
Y0255
Y0265
Y0275
Y0285
Y0295
Y0305
X0111
Y0295
Y0285
Y0275
Y0265
Y0255
Y0245
Y0235
Y0225
Y0215
Y0315
Y0325
X0171
Y0315
T04
X0222657Y02835
X02325
X0242342
Y0340587
X0222657
T05
X02805Y02935
Y03035
Y03135
Y03235
T06
X0210059Y0313028
X0254941
T07
X00905Y0023
X0427
X00895Y0332
X0434Y03325
T08
X02205Y0081
X02455Y0091
X0293Y0081
X0318Y0091
X0367Y0081
X0392Y0091
Y0176
X0367Y0166
X0318Y0176
X03185Y02605
X0367Y02505
X0392Y02605
X02935Y02505
X02455Y02605
X02205Y02505
Y0166
X02455Y0176
X0293Y0166
T09
X02355Y0071
X0308
Y0156
X02355
X0382
Y0071
Y02405
X03085
X02355
M30
