M48
;Layer_Color=9474304
;FILE_FORMAT=4:4
METRIC,LZ
;TYPE=PLATED
T01F00S00C0.3810
T02F00S00C0.7300
T03F00S00C1.0000
T04F00S00C1.1000
T05F00S00C3.1600
T06F00S00C3.2000
;TYPE=NON_PLATED
T07F00S00C3.0000
T08F00S00C4.0894
%
T01
X0086487Y0056515
X0099568Y0078613
X0078613Y0072771
X0075565Y0081026
X0084455Y0082804
X0099568Y008128
X0099822Y00889
X0101727Y009144
X0104775Y008636
T02
X00561755Y0007366
X00637125
X00747175
Y0028956
X00637125
X00561755
X00822545
X00932595
X01007965
Y0007366
X00932595
X00822545
X00821275Y0050419
X00932595
X01007965
X00745905
X00635855
X00560485
X0048768Y00739555
Y00814925
T03
X0056794Y0074796
X0059294
X0061794
Y0089296
X0056794
T04
X007112Y0078232
Y0080772
Y0083312
Y0085852
T05
X0053594Y0082296
X0064994
T06
X0047498Y0006858
X0109347
X0047498Y0089535
X0109855Y0090043
T07
X0056007Y0020574
X0062357Y0023114
X0074422Y0020574
X0080772Y0023114
X0093218Y0020574
X0099568Y0023114
Y0044704
X0093218Y0042164
X0080772Y0044704
X0080899Y0066167
X0093218Y0063627
X0099568Y0066167
X0074549Y0063627
X0062357Y0066167
X0056007Y0063627
Y0042164
X0062357Y0044704
X0074422Y0042164
T08
X0059817Y0018034
X0078232
Y0039624
X0059817
X0097028
Y0018034
Y0061087
X0078359
X0059817
M30
