G04*
G04 #@! TF.GenerationSoftware,Altium Limited,Altium Designer,25.8.1 (18)*
G04*
G04 Layer_Color=32896*
%FSLAX25Y25*%
%MOIN*%
G70*
G04*
G04 #@! TF.SameCoordinates,62C80C61-A7C9-4306-83B5-3B4BC263EF3F*
G04*
G04*
G04 #@! TF.FilePolarity,Positive*
G04*
G01*
G75*
%ADD11C,0.00787*%
%ADD13C,0.00500*%
%ADD14C,0.01000*%
D11*
X192394Y286315D02*
G03*
X192394Y286315I-394J0D01*
G01*
X413752Y176118D02*
G03*
X413752Y176118I-394J0D01*
G01*
X339752D02*
G03*
X339752Y176118I-394J0D01*
G01*
X267252Y260618D02*
G03*
X267252Y260618I-394J0D01*
G01*
X340252D02*
G03*
X340252Y260618I-394J0D01*
G01*
X339752Y91118D02*
G03*
X339752Y91118I-394J0D01*
G01*
X413752D02*
G03*
X413752Y91118I-394J0D01*
G01*
X267252D02*
G03*
X267252Y91118I-394J0D01*
G01*
Y176118D02*
G03*
X267252Y176118I-394J0D01*
G01*
X413752Y260618D02*
G03*
X413752Y260618I-394J0D01*
G01*
X328579Y198500D02*
G03*
X328579Y198500I-394J0D01*
G01*
X255579D02*
G03*
X255579Y198500I-394J0D01*
G01*
X402079Y29000D02*
G03*
X402079Y29000I-394J0D01*
G01*
X329079D02*
G03*
X329079Y29000I-394J0D01*
G01*
X256079D02*
G03*
X256079Y29000I-394J0D01*
G01*
Y114000D02*
G03*
X256079Y114000I-394J0D01*
G01*
X329079D02*
G03*
X329079Y114000I-394J0D01*
G01*
X402079D02*
G03*
X402079Y114000I-394J0D01*
G01*
Y198500D02*
G03*
X402079Y198500I-394J0D01*
G01*
D13*
X360012Y175154D02*
G03*
X358043Y173185I0J-1969D01*
G01*
X380622Y175154D02*
G03*
X386094Y180626I0J5472D01*
G01*
X388063Y182595D02*
G03*
X386094Y180626I0J-1969D01*
G01*
X394362Y159406D02*
G03*
X400957Y166000I0J6594D01*
G01*
X286012Y175154D02*
G03*
X284043Y173185I0J-1969D01*
G01*
X306622Y175154D02*
G03*
X312094Y180626I0J5472D01*
G01*
X314063Y182595D02*
G03*
X312094Y180626I0J-1969D01*
G01*
X320362Y159406D02*
G03*
X326957Y166000I0J6594D01*
G01*
X213512Y259653D02*
G03*
X211543Y257685I0J-1969D01*
G01*
X234122Y259653D02*
G03*
X239595Y265126I0J5472D01*
G01*
X241563Y267094D02*
G03*
X239595Y265126I0J-1969D01*
G01*
X247862Y243905D02*
G03*
X254457Y250500I0J6594D01*
G01*
X286512Y259653D02*
G03*
X284543Y257685I0J-1969D01*
G01*
X307122Y259653D02*
G03*
X312595Y265126I0J5472D01*
G01*
X314563Y267094D02*
G03*
X312595Y265126I0J-1969D01*
G01*
X320862Y243905D02*
G03*
X327457Y250500I0J6594D01*
G01*
X286012Y90153D02*
G03*
X284043Y88185I0J-1969D01*
G01*
X306622Y90153D02*
G03*
X312094Y95626I0J5472D01*
G01*
X314063Y97594D02*
G03*
X312094Y95626I0J-1969D01*
G01*
X320362Y74405D02*
G03*
X326957Y81000I0J6594D01*
G01*
X360012Y90153D02*
G03*
X358043Y88185I0J-1969D01*
G01*
X380622Y90153D02*
G03*
X386094Y95626I0J5472D01*
G01*
X388063Y97594D02*
G03*
X386094Y95626I0J-1969D01*
G01*
X394362Y74405D02*
G03*
X400957Y81000I0J6594D01*
G01*
X213512Y90153D02*
G03*
X211543Y88185I0J-1969D01*
G01*
X234122Y90153D02*
G03*
X239595Y95626I0J5472D01*
G01*
X241563Y97594D02*
G03*
X239595Y95626I0J-1969D01*
G01*
X247862Y74405D02*
G03*
X254457Y81000I0J6594D01*
G01*
X213512Y175154D02*
G03*
X211543Y173185I0J-1969D01*
G01*
X234122Y175154D02*
G03*
X239595Y180626I0J5472D01*
G01*
X241563Y182595D02*
G03*
X239595Y180626I0J-1969D01*
G01*
X247862Y159406D02*
G03*
X254457Y166000I0J6594D01*
G01*
X360012Y259653D02*
G03*
X358043Y257685I0J-1969D01*
G01*
X380622Y259653D02*
G03*
X386094Y265126I0J5472D01*
G01*
X388063Y267094D02*
G03*
X386094Y265126I0J-1969D01*
G01*
X394362Y243905D02*
G03*
X400957Y250500I0J6594D01*
G01*
X188614Y298510D02*
X195386D01*
X188614D02*
Y313490D01*
X195386D01*
Y298510D02*
Y313490D01*
X358043Y172181D02*
Y173185D01*
X360012Y175154D02*
X380622D01*
X400957Y166000D02*
Y169819D01*
X370937Y159406D02*
X394362D01*
X284043Y172181D02*
Y173185D01*
X286012Y175154D02*
X306622D01*
X326957Y166000D02*
Y169819D01*
X296937Y159406D02*
X320362D01*
X211543Y256681D02*
Y257685D01*
X213512Y259653D02*
X234122D01*
X254457Y250500D02*
Y254319D01*
X224437Y243905D02*
X247862D01*
X284543Y256681D02*
Y257685D01*
X286512Y259653D02*
X307122D01*
X327457Y250500D02*
Y254319D01*
X297437Y243905D02*
X320862D01*
X284043Y87181D02*
Y88185D01*
X286012Y90153D02*
X306622D01*
X326957Y81000D02*
Y84819D01*
X296937Y74405D02*
X320362D01*
X358043Y87181D02*
Y88185D01*
X360012Y90153D02*
X380622D01*
X400957Y81000D02*
Y84819D01*
X370937Y74405D02*
X394362D01*
X211543Y87181D02*
Y88185D01*
X213512Y90153D02*
X234122D01*
X254457Y81000D02*
Y84819D01*
X224437Y74405D02*
X247862D01*
X211543Y172181D02*
Y173185D01*
X213512Y175154D02*
X234122D01*
X254457Y166000D02*
Y169819D01*
X224437Y159406D02*
X247862D01*
X358043Y256681D02*
Y257685D01*
X360012Y259653D02*
X380622D01*
X400957Y250500D02*
Y254319D01*
X370937Y243905D02*
X394362D01*
X301010Y201886D02*
X315990D01*
X301010Y195114D02*
Y201886D01*
Y195114D02*
X315990D01*
Y201886D01*
X242990Y195114D02*
Y201886D01*
X228010Y195114D02*
X242990D01*
X228010D02*
Y201886D01*
X242990D01*
X389490Y25614D02*
Y32386D01*
X374510Y25614D02*
X389490D01*
X374510D02*
Y32386D01*
X389490D01*
X316490Y25614D02*
Y32386D01*
X301510Y25614D02*
X316490D01*
X301510D02*
Y32386D01*
X316490D01*
X243490Y25614D02*
Y32386D01*
X228510Y25614D02*
X243490D01*
X228510D02*
Y32386D01*
X243490D01*
Y110614D02*
Y117386D01*
X228510Y110614D02*
X243490D01*
X228510D02*
Y117386D01*
X243490D01*
X316490Y110614D02*
Y117386D01*
X301510Y110614D02*
X316490D01*
X301510D02*
Y117386D01*
X316490D01*
X389490Y110614D02*
Y117386D01*
X374510Y110614D02*
X389490D01*
X374510D02*
Y117386D01*
X389490D01*
Y195114D02*
Y201886D01*
X374510Y195114D02*
X389490D01*
X374510D02*
Y201886D01*
X389490D01*
D14*
X203500Y333398D02*
Y327400D01*
X200501D01*
X199501Y328400D01*
Y332398D01*
X200501Y333398D01*
X203500D01*
X197502Y327400D02*
X195503D01*
X196502D01*
Y333398D01*
X197502Y332398D01*
X192504D02*
X191504Y333398D01*
X189505D01*
X188505Y332398D01*
Y328400D01*
X189505Y327400D01*
X191504D01*
X192504Y328400D01*
Y332398D01*
X353901Y106698D02*
X354901Y107698D01*
X356900D01*
X357900Y106698D01*
Y105699D01*
X356900Y104699D01*
X354901D01*
X353901Y103699D01*
Y102700D01*
X354901Y101700D01*
X356900D01*
X357900Y102700D01*
X351902D02*
X350902Y101700D01*
X348903D01*
X347903Y102700D01*
Y106698D01*
X348903Y107698D01*
X350902D01*
X351902Y106698D01*
Y105699D01*
X350902Y104699D01*
X347903D01*
X279901Y106698D02*
X280901Y107698D01*
X282900D01*
X283900Y106698D01*
Y105699D01*
X282900Y104699D01*
X280901D01*
X279901Y103699D01*
Y102700D01*
X280901Y101700D01*
X282900D01*
X283900Y102700D01*
X277902Y106698D02*
X276902Y107698D01*
X274903D01*
X273903Y106698D01*
Y105699D01*
X274903Y104699D01*
X273903Y103699D01*
Y102700D01*
X274903Y101700D01*
X276902D01*
X277902Y102700D01*
Y103699D01*
X276902Y104699D01*
X277902Y105699D01*
Y106698D01*
X276902Y104699D02*
X274903D01*
X207401Y106698D02*
X208401Y107698D01*
X210400D01*
X211400Y106698D01*
Y105699D01*
X210400Y104699D01*
X208401D01*
X207401Y103699D01*
Y102700D01*
X208401Y101700D01*
X210400D01*
X211400Y102700D01*
X205402Y107698D02*
X201403D01*
Y106698D01*
X205402Y102700D01*
Y101700D01*
X353901Y191698D02*
X354901Y192698D01*
X356900D01*
X357900Y191698D01*
Y190699D01*
X356900Y189699D01*
X354901D01*
X353901Y188699D01*
Y187700D01*
X354901Y186700D01*
X356900D01*
X357900Y187700D01*
X347903Y192698D02*
X349903Y191698D01*
X351902Y189699D01*
Y187700D01*
X350902Y186700D01*
X348903D01*
X347903Y187700D01*
Y188699D01*
X348903Y189699D01*
X351902D01*
X279901Y191698D02*
X280901Y192698D01*
X282900D01*
X283900Y191698D01*
Y190699D01*
X282900Y189699D01*
X280901D01*
X279901Y188699D01*
Y187700D01*
X280901Y186700D01*
X282900D01*
X283900Y187700D01*
X273903Y192698D02*
X277902D01*
Y189699D01*
X275903Y190699D01*
X274903D01*
X273903Y189699D01*
Y187700D01*
X274903Y186700D01*
X276902D01*
X277902Y187700D01*
X207401Y191698D02*
X208401Y192698D01*
X210400D01*
X211400Y191698D01*
Y190699D01*
X210400Y189699D01*
X208401D01*
X207401Y188699D01*
Y187700D01*
X208401Y186700D01*
X210400D01*
X211400Y187700D01*
X202403Y186700D02*
Y192698D01*
X205402Y189699D01*
X201403D01*
X353901Y276198D02*
X354901Y277198D01*
X356900D01*
X357900Y276198D01*
Y275199D01*
X356900Y274199D01*
X354901D01*
X353901Y273199D01*
Y272200D01*
X354901Y271200D01*
X356900D01*
X357900Y272200D01*
X351902Y276198D02*
X350902Y277198D01*
X348903D01*
X347903Y276198D01*
Y275199D01*
X348903Y274199D01*
X349903D01*
X348903D01*
X347903Y273199D01*
Y272200D01*
X348903Y271200D01*
X350902D01*
X351902Y272200D01*
X280401Y276198D02*
X281401Y277198D01*
X283400D01*
X284400Y276198D01*
Y275199D01*
X283400Y274199D01*
X281401D01*
X280401Y273199D01*
Y272200D01*
X281401Y271200D01*
X283400D01*
X284400Y272200D01*
X274403Y271200D02*
X278402D01*
X274403Y275199D01*
Y276198D01*
X275403Y277198D01*
X277402D01*
X278402Y276198D01*
X271000Y295999D02*
X272000Y296999D01*
X273999D01*
X274999Y295999D01*
Y295000D01*
X273999Y294000D01*
X272000D01*
X271000Y293000D01*
Y292001D01*
X272000Y291001D01*
X273999D01*
X274999Y292001D01*
X269001Y291001D02*
X267001D01*
X268001D01*
Y296999D01*
X269001Y295999D01*
X357998Y31999D02*
Y26001D01*
X354999D01*
X354000Y27001D01*
Y30999D01*
X354999Y31999D01*
X357998D01*
X352000Y27001D02*
X351001Y26001D01*
X349001D01*
X348002Y27001D01*
Y30999D01*
X349001Y31999D01*
X351001D01*
X352000Y30999D01*
Y30000D01*
X351001Y29000D01*
X348002D01*
X286998Y31499D02*
Y25501D01*
X283999D01*
X283000Y26501D01*
Y30499D01*
X283999Y31499D01*
X286998D01*
X281000Y30499D02*
X280001Y31499D01*
X278001D01*
X277002Y30499D01*
Y29500D01*
X278001Y28500D01*
X277002Y27500D01*
Y26501D01*
X278001Y25501D01*
X280001D01*
X281000Y26501D01*
Y27500D01*
X280001Y28500D01*
X281000Y29500D01*
Y30499D01*
X280001Y28500D02*
X278001D01*
X213998Y31999D02*
Y26001D01*
X210999D01*
X210000Y27001D01*
Y30999D01*
X210999Y31999D01*
X213998D01*
X208000D02*
X204002D01*
Y30999D01*
X208000Y27001D01*
Y26001D01*
X358498Y116999D02*
Y111001D01*
X355499D01*
X354500Y112001D01*
Y115999D01*
X355499Y116999D01*
X358498D01*
X348502D02*
X350501Y115999D01*
X352500Y114000D01*
Y112001D01*
X351501Y111001D01*
X349501D01*
X348502Y112001D01*
Y113000D01*
X349501Y114000D01*
X352500D01*
X287498Y116999D02*
Y111001D01*
X284499D01*
X283500Y112001D01*
Y115999D01*
X284499Y116999D01*
X287498D01*
X277502D02*
X281500D01*
Y114000D01*
X279501Y115000D01*
X278501D01*
X277502Y114000D01*
Y112001D01*
X278501Y111001D01*
X280501D01*
X281500Y112001D01*
X214998Y116999D02*
Y111001D01*
X211999D01*
X211000Y112001D01*
Y115999D01*
X211999Y116999D01*
X214998D01*
X206001Y111001D02*
Y116999D01*
X209000Y114000D01*
X205002D01*
X359998Y201499D02*
Y195501D01*
X356999D01*
X356000Y196501D01*
Y200499D01*
X356999Y201499D01*
X359998D01*
X354000Y200499D02*
X353001Y201499D01*
X351001D01*
X350002Y200499D01*
Y199500D01*
X351001Y198500D01*
X352001D01*
X351001D01*
X350002Y197500D01*
Y196501D01*
X351001Y195501D01*
X353001D01*
X354000Y196501D01*
X287498Y201999D02*
Y196001D01*
X284499D01*
X283500Y197001D01*
Y200999D01*
X284499Y201999D01*
X287498D01*
X277502Y196001D02*
X281500D01*
X277502Y200000D01*
Y200999D01*
X278501Y201999D01*
X280501D01*
X281500Y200999D01*
X214499Y201499D02*
Y195501D01*
X211500D01*
X210500Y196501D01*
Y200499D01*
X211500Y201499D01*
X214499D01*
X208501Y195501D02*
X206501D01*
X207501D01*
Y201499D01*
X208501Y200499D01*
M02*
