G04*
G04 #@! TF.GenerationSoftware,Altium Limited,Altium Designer,25.8.1 (18)*
G04*
G04 Layer_Color=8388736*
%FSLAX25Y25*%
%MOIN*%
G70*
G04*
G04 #@! TF.SameCoordinates,62C80C61-A7C9-4306-83B5-3B4BC263EF3F*
G04*
G04*
G04 #@! TF.FilePolarity,Negative*
G04*
G01*
G75*
G04:AMPARAMS|DCode=15|XSize=70.99mil|YSize=70.99mil|CornerRadius=35.5mil|HoleSize=0mil|Usage=FLASHONLY|Rotation=180.000|XOffset=0mil|YOffset=0mil|HoleType=Round|Shape=RoundedRectangle|*
%AMROUNDEDRECTD15*
21,1,0.07099,0.00000,0,0,180.0*
21,1,0.00000,0.07099,0,0,180.0*
1,1,0.07099,0.00000,0.00000*
1,1,0.07099,0.00000,0.00000*
1,1,0.07099,0.00000,0.00000*
1,1,0.07099,0.00000,0.00000*
%
%ADD15ROUNDEDRECTD15*%
%ADD16R,0.07099X0.07099*%
%ADD17C,0.06706*%
%ADD18R,0.06706X0.06706*%
%ADD19C,0.19461*%
%ADD20R,0.06509X0.06509*%
%ADD21C,0.05674*%
%ADD22R,0.05674X0.05674*%
%ADD23C,0.06509*%
%ADD24C,0.16900*%
%ADD25C,0.12611*%
%ADD26C,0.15800*%
%ADD27R,0.05674X0.05674*%
%ADD28C,0.03800*%
D15*
X111000Y215000D02*
D03*
Y225000D02*
D03*
Y235000D02*
D03*
X171000Y325000D02*
D03*
X111000Y245000D02*
D03*
X171000Y315000D02*
D03*
X111000Y255000D02*
D03*
X171000Y305000D02*
D03*
X111000Y265000D02*
D03*
X171000Y295000D02*
D03*
X111000Y275000D02*
D03*
X171000Y285000D02*
D03*
X111000D02*
D03*
X171000Y275000D02*
D03*
X111000Y295000D02*
D03*
X171000Y265000D02*
D03*
X111000Y305000D02*
D03*
X171000Y255000D02*
D03*
X111000Y315000D02*
D03*
X171000Y245000D02*
D03*
Y235000D02*
D03*
Y225000D02*
D03*
Y215000D02*
D03*
D16*
X111000Y325000D02*
D03*
D17*
X222657Y340587D02*
D03*
X242342Y283500D02*
D03*
Y340587D02*
D03*
X232500Y283500D02*
D03*
D18*
X222657D02*
D03*
D19*
X210059Y313028D02*
D03*
X254941D02*
D03*
D20*
X280500Y293500D02*
D03*
D21*
X192000Y320837D02*
D03*
X367163Y198500D02*
D03*
X293663D02*
D03*
X220663D02*
D03*
X367163Y29000D02*
D03*
X294163D02*
D03*
X221163D02*
D03*
Y114000D02*
D03*
X294163D02*
D03*
X367163D02*
D03*
D22*
X192000Y291163D02*
D03*
D23*
X280500Y303500D02*
D03*
Y313500D02*
D03*
Y323500D02*
D03*
D24*
X235500Y240500D02*
D03*
X382000Y71000D02*
D03*
X308000D02*
D03*
X235500D02*
D03*
X382000Y156000D02*
D03*
X308000D02*
D03*
X235500D02*
D03*
X308500Y240500D02*
D03*
X382000D02*
D03*
D25*
X392000Y176000D02*
D03*
X367000Y166000D02*
D03*
X318000Y176000D02*
D03*
X293000Y166000D02*
D03*
X245500Y260500D02*
D03*
X220500Y250500D02*
D03*
X318500Y260500D02*
D03*
X293500Y250500D02*
D03*
X318000Y91000D02*
D03*
X293000Y81000D02*
D03*
X392000Y91000D02*
D03*
X367000Y81000D02*
D03*
X245500Y91000D02*
D03*
X220500Y81000D02*
D03*
X245500Y176000D02*
D03*
X220500Y166000D02*
D03*
X392000Y260500D02*
D03*
X367000Y250500D02*
D03*
D26*
X434000Y332500D02*
D03*
X90500Y23000D02*
D03*
X427000D02*
D03*
X89500Y332000D02*
D03*
D27*
X323337Y198500D02*
D03*
X396837D02*
D03*
X250337D02*
D03*
X250837Y114000D02*
D03*
X323837D02*
D03*
X396837D02*
D03*
X250837Y29000D02*
D03*
X323837D02*
D03*
X396837D02*
D03*
D28*
X198000Y217000D02*
D03*
X187500Y230000D02*
D03*
X149000Y250000D02*
D03*
X134500Y238000D02*
D03*
X133500Y253000D02*
D03*
X229500Y263000D02*
D03*
X250000Y219500D02*
D03*
X215000Y218500D02*
D03*
X250500Y236500D02*
D03*
X200500Y238000D02*
D03*
X236000Y300000D02*
D03*
X130500Y312500D02*
D03*
X161000D02*
D03*
X159500Y286500D02*
D03*
X272000Y264000D02*
D03*
M02*
